<svg width="25" height="25" viewBox="0 0 25 25" fill="none" xmlns="http://www.w3.org/2000/svg">
<path d="M24.2188 15.625C23.7875 15.625 23.4375 15.975 23.4375 16.4062V21.875H1.5625V12.5H10.1562C10.5875 12.5 10.9375 12.15 10.9375 11.7187C10.9375 11.2875 10.5875 10.9375 10.1562 10.9375H1.5625V7.8125H10.1562C10.5875 7.8125 10.9375 7.4625 10.9375 7.03125C10.9375 6.6 10.5875 6.25 10.1562 6.25H1.5625C0.7 6.25 0 6.95 0 7.8125V21.875C0 22.7375 0.7 23.4375 1.5625 23.4375H23.4375C24.3 23.4375 25 22.7375 25 21.875V16.4062C25 15.975 24.65 15.625 24.2188 15.625Z" fill="#2E51DB"/>
<path d="M7.03125 15.625H3.90625C3.475 15.625 3.125 15.975 3.125 16.4063C3.125 16.8375 3.475 17.1875 3.90625 17.1875H7.03125C7.4625 17.1875 7.8125 16.8375 7.8125 16.4063C7.8125 15.975 7.4625 15.625 7.03125 15.625Z" fill="#2E51DB"/>
<path d="M24.5266 3.96836L19.0578 1.62461C18.8594 1.5418 18.6391 1.5418 18.4406 1.62461L12.9719 3.96836C12.6859 4.0918 12.5 4.37461 12.5 4.68711V7.81211C12.5 12.1105 14.0891 14.623 18.3609 17.084C18.4813 17.1527 18.6156 17.1871 18.75 17.1871C18.8844 17.1871 19.0187 17.1527 19.1391 17.084C23.4109 14.6293 25 12.1168 25 7.81211V4.68711C25 4.37461 24.8141 4.0918 24.5266 3.96836ZM23.4375 7.81211C23.4375 11.4199 22.2437 13.4059 18.75 15.4996C15.2562 13.4012 14.0625 11.4152 14.0625 7.81211V5.20273L18.75 3.19336L23.4375 5.20273V7.81211Z" fill="#2E51DB"/>
<path d="M21.5823 6.4203C21.2463 6.15468 20.7557 6.20624 20.4838 6.54218L18.0276 9.61405L17.0557 8.16093C16.8135 7.80155 16.3276 7.70624 15.9729 7.94374C15.6151 8.1828 15.5166 8.66874 15.7557 9.02655L17.3182 11.3703C17.4573 11.5781 17.6854 11.7062 17.9354 11.7187C17.9463 11.7187 17.9588 11.7187 17.9682 11.7187C18.2041 11.7187 18.4291 11.6125 18.5791 11.425L21.7041 7.51874C21.9729 7.18124 21.9198 6.69061 21.5823 6.4203Z" fill="#2E51DB"/>
</svg>
