<svg width="25" height="25" viewBox="0 0 25 25" fill="none" xmlns="http://www.w3.org/2000/svg">
<path d="M23.9014 5.54199H1.95312V7.78809H0V11.3037H0.366211C1.64507 11.3037 2.68555 12.3442 2.68555 13.623C2.68555 14.9019 1.64507 15.9424 0.366211 15.9424H0V19.458H21.9482C22.5541 19.458 23.0469 18.9651 23.0469 18.3594V17.2119H23.9014C24.5072 17.2119 25 16.719 25 16.1133V6.64062C25 6.03486 24.5072 5.54199 23.9014 5.54199ZM22.3145 18.3594C22.3145 18.5613 22.1502 18.7256 21.9482 18.7256H9.7168V15.4785H8.98438V18.7256H0.732422V16.653C2.24321 16.4715 3.41797 15.1819 3.41797 13.623C3.41797 12.0642 2.24321 10.7746 0.732422 10.5931V8.52051H8.98438V11.8164H9.7168V8.52051H21.9482C22.1502 8.52051 22.3145 8.68477 22.3145 8.88672V18.3594ZM24.2676 16.1133C24.2676 16.3152 24.1033 16.4795 23.9014 16.4795H23.0469V8.88672C23.0469 8.28096 22.5541 7.78809 21.9482 7.78809H2.68555V6.27441H23.9014C24.1033 6.27441 24.2676 6.43867 24.2676 6.64062V16.1133Z" fill="#2E51DB"/>
<path d="M8.98438 14.0137H9.7168V14.7461H8.98438V14.0137Z" fill="#2E51DB"/>
<path d="M8.98438 12.5488H9.7168V13.2812H8.98438V12.5488Z" fill="#2E51DB"/>
<path d="M13.1416 16.208L18.7804 10.5692L19.2982 11.087L13.6594 16.7258L13.1416 16.208Z" fill="#2E51DB"/>
<path d="M15.7959 11.4014C15.7959 10.5263 15.084 9.81445 14.209 9.81445C13.334 9.81445 12.6221 10.5263 12.6221 11.4014C12.6221 12.2764 13.334 12.9883 14.209 12.9883C15.084 12.9883 15.7959 12.2764 15.7959 11.4014ZM13.3545 11.4014C13.3545 10.9302 13.7378 10.5469 14.209 10.5469C14.6801 10.5469 15.0635 10.9302 15.0635 11.4014C15.0635 11.8725 14.6801 12.2559 14.209 12.2559C13.7378 12.2559 13.3545 11.8725 13.3545 11.4014Z" fill="#2E51DB"/>
<path d="M18.6035 14.2578C17.7285 14.2578 17.0166 14.9697 17.0166 15.8447C17.0166 16.7198 17.7285 17.4316 18.6035 17.4316C19.4785 17.4316 20.1904 16.7198 20.1904 15.8447C20.1904 14.9697 19.4785 14.2578 18.6035 14.2578ZM18.6035 16.6992C18.1324 16.6992 17.749 16.3159 17.749 15.8447C17.749 15.3736 18.1324 14.9902 18.6035 14.9902C19.0747 14.9902 19.458 15.3736 19.458 15.8447C19.458 16.3159 19.0747 16.6992 18.6035 16.6992Z" fill="#2E51DB"/>
<path d="M4.71191 10.7666H7.20215V11.499H4.71191V10.7666Z" fill="#2E51DB"/>
<path d="M4.71191 12.4268H7.20215V13.1592H4.71191V12.4268Z" fill="#2E51DB"/>
<path d="M4.71191 14.0869H7.20215V14.8193H4.71191V14.0869Z" fill="#2E51DB"/>
<path d="M4.71191 15.7471H7.20215V16.4795H4.71191V15.7471Z" fill="#2E51DB"/>
</svg>
