<svg width="20" height="20" viewBox="0 0 20 20" fill="none" xmlns="http://www.w3.org/2000/svg">
<path d="M5.09384 11.5573L4.43743 14.0078L2.03825 14.0585C1.32125 12.7286 0.914551 11.2071 0.914551 9.59017C0.914551 8.02663 1.2948 6.55219 1.96882 5.25391H1.96934L4.10528 5.6455L5.04095 7.76863C4.84512 8.33955 4.73838 8.95243 4.73838 9.59017C4.73845 10.2823 4.86383 10.9455 5.09384 11.5573Z" fill="#FBBB00"/>
<path d="M19.6077 7.82861C19.7159 8.39899 19.7724 8.98804 19.7724 9.59005C19.7724 10.2651 19.7014 10.9236 19.5662 11.5587C19.1072 13.7201 17.9079 15.6075 16.2464 16.9431L16.2459 16.9425L13.5556 16.8053L13.1748 14.4283C14.2773 13.7818 15.1388 12.77 15.5927 11.5587H10.5508V7.82861H15.6662H19.6077Z" fill="#518EF8"/>
<path d="M16.2462 16.9425L16.2467 16.943C14.6308 18.2418 12.5782 19.0189 10.3438 19.0189C6.75303 19.0189 3.63114 17.0119 2.03857 14.0584L5.09417 11.5571C5.89043 13.6822 7.94044 15.195 10.3438 15.195C11.3768 15.195 12.3446 14.9158 13.175 14.4283L16.2462 16.9425Z" fill="#28B446"/>
<path d="M16.3609 2.33184L13.3063 4.83257C12.4468 4.29534 11.4309 3.985 10.3424 3.985C7.88467 3.985 5.79632 5.56718 5.03994 7.76849L1.96829 5.25377H1.96777C3.53702 2.22824 6.69829 0.161133 10.3424 0.161133C12.6302 0.161133 14.7279 0.97607 16.3609 2.33184Z" fill="#F14336"/>
</svg>
