<svg width="19" height="19" viewBox="0 0 19 19" fill="none" xmlns="http://www.w3.org/2000/svg">
<g clip-path="url(#clip0_13_4498)">
<path d="M18.1899 18.6965V18.6958H18.1944V12.0804C18.1944 8.84406 17.4977 6.35107 13.7142 6.35107C11.8954 6.35107 10.6748 7.34917 10.1765 8.29541H10.1239V6.65321H6.53662V18.6958H10.272V12.7327C10.272 11.1627 10.5696 9.6445 12.5139 9.6445C14.4297 9.6445 14.4583 11.4363 14.4583 12.8335V18.6965H18.1899Z" fill="#0077B5"/>
<path d="M0.454102 6.65381H4.19396V18.6964H0.454102V6.65381Z" fill="#0077B5"/>
<path d="M2.3223 0.658691C1.12654 0.658691 0.15625 1.62898 0.15625 2.82474C0.15625 4.02051 1.12654 5.01109 2.3223 5.01109C3.51807 5.01109 4.48836 4.02051 4.48836 2.82474C4.4876 1.62898 3.51731 0.658691 2.3223 0.658691V0.658691Z" fill="#0077B5"/>
</g>
<defs>
<clipPath id="clip0_13_4498">
<rect width="18.0379" height="18.0379" fill="white" transform="translate(0.15625 0.658691)"/>
</clipPath>
</defs>
</svg>
