<svg width="32" height="33" viewBox="0 0 32 33" fill="none" xmlns="http://www.w3.org/2000/svg">
<path d="M16.0231 0.165523C19.077 0.165523 22.131 0.162102 25.185 0.165523C26.1785 0.165523 26.3786 0.367339 26.3419 1.36274C26.3152 2.10159 26.2719 2.84044 26.1885 3.57587C26.1285 4.09923 26.2819 4.29421 26.812 4.27711C27.9222 4.24632 29.0325 4.26342 30.1427 4.27026C31.393 4.28052 31.9864 4.87571 31.9897 6.14818C31.9964 8.71364 31.9764 11.2791 31.9997 13.8411C32.0097 14.7955 31.613 15.3941 30.7595 15.7396C29.0058 16.4476 27.2654 17.1933 25.5051 17.8877C25.1016 18.0485 24.8749 18.2879 24.7216 18.6881C23.7414 21.2297 21.9977 23.0186 19.5471 24.0619C19.0537 24.2706 18.9303 24.5203 19.0637 25.0265C19.1871 25.4917 19.2204 25.9775 19.3038 26.4529C19.5205 27.6775 20.2073 28.5019 21.3409 28.9397C21.8843 29.1518 22.4377 29.3399 22.9712 29.5828C23.9147 30.0104 24.4015 31.7583 23.838 32.6134C23.6247 32.935 23.3146 32.9966 22.9645 32.9966C18.3269 32.9931 13.6893 32.9897 9.05496 32.9966C8.32147 32.9966 8.00807 32.6511 7.9914 31.9054C7.9514 30.2532 8.17478 29.8906 9.69176 29.3194C12.1789 28.3821 12.8658 27.4107 12.9891 24.7187C13.0058 24.3424 12.8224 24.2261 12.549 24.1132C9.99849 23.046 8.21478 21.1955 7.21791 18.5616C7.08121 18.2024 6.8445 18.0382 6.51776 17.9048C4.81407 17.2173 3.11706 16.516 1.42003 15.8148C0.273129 15.3428 0.00640677 14.9426 0.00640677 13.6975C0.00307274 11.2175 0.00307274 8.73758 0.00640677 6.26106C0.0097408 4.8244 0.563189 4.27026 1.99015 4.26684C3.04371 4.26342 4.10059 4.23948 5.15415 4.27711C5.7376 4.29763 5.86763 4.06845 5.79761 3.51773C5.71093 2.84045 5.68092 2.15633 5.65425 1.47562C5.61091 0.343401 5.78094 0.16553 6.86117 0.162109C9.91514 0.162109 12.9691 0.165523 16.0231 0.165523ZM15.9431 2.73098C13.8593 2.73098 11.7789 2.72414 9.69509 2.73441C8.64487 2.73783 8.25479 3.22698 8.33814 4.28737C8.51818 6.63049 8.70489 8.97702 8.81824 11.3236C8.90159 13.1125 9.09497 14.8844 9.50839 16.6221C10.6753 21.5614 15.8864 23.6925 19.8439 20.8431C21.2642 19.8204 21.961 18.2777 22.3077 16.6153C23.1912 12.3771 23.2879 8.06372 23.3279 3.75033C23.3346 2.97385 22.8845 2.72414 22.191 2.73098C20.1073 2.73782 18.0268 2.73098 15.9431 2.73098ZM6.54777 14.3816C6.42108 12.7089 6.29772 11.1867 6.18769 9.66115C6.01766 7.31119 6.02433 7.32144 3.69051 7.51984C3.28709 7.55405 3.1704 7.70456 3.17373 8.09109C3.18707 9.56879 3.18707 11.0465 3.17373 12.5242C3.1704 12.9005 3.34043 13.0818 3.66384 13.2083C4.56736 13.5606 5.46088 13.9369 6.54777 14.3816ZM28.8124 10.4718C28.8124 10.1263 28.8124 9.92796 28.8124 9.72956C28.8124 7.44117 28.8124 7.45827 26.5719 7.51984C26.0818 7.53352 25.8818 7.68745 25.8518 8.19712C25.7551 9.92453 25.6151 11.6519 25.5117 13.3828C25.4517 14.3782 25.4784 14.3987 26.3786 14.0019C27.1621 13.6564 28.209 13.5949 28.669 12.9142C29.1291 12.2266 28.7457 11.2004 28.8124 10.4718Z" fill="#EDB545"/>
<path d="M15.9432 2.73099C18.027 2.73099 20.1074 2.73784 22.1912 2.72757C22.8847 2.72415 23.3347 2.97385 23.3281 3.74691C23.2881 8.0603 23.1914 12.3771 22.3079 16.6118C21.9611 18.2743 21.261 19.8169 19.844 20.8397C15.8899 23.6891 10.6788 21.5581 9.50854 16.6187C9.09845 14.881 8.90508 13.1125 8.81839 11.3201C8.70837 8.97018 8.51833 6.62707 8.33829 4.28395C8.25828 3.22698 8.64502 2.73441 9.69524 2.73099C11.779 2.72415 13.8628 2.73099 15.9432 2.73099ZM17.4535 11.9051C18.4604 11.5356 18.9738 10.9028 18.9638 9.94164C18.9538 8.9052 18.4037 8.18002 17.5102 7.73534C17.0301 7.4959 16.5 7.42407 15.9732 7.40354C14.5496 7.34882 13.2193 8.13214 12.8559 9.22674C12.6759 9.76719 12.6225 10.2221 13.446 10.1195C13.9961 10.0511 14.5229 10.205 14.8897 9.49012C15.1797 8.92572 15.8799 8.87441 16.4566 9.1549C16.8767 9.35671 17.1535 9.73298 17.0434 10.2666C16.9034 10.9439 16.3833 11.1252 15.8065 11.2107C15.6431 11.2346 15.4731 11.2449 15.3097 11.2312C14.9363 11.2004 14.863 11.392 14.8363 11.7409C14.7796 12.4182 14.8897 12.8492 15.6965 12.7123C15.9032 12.6781 16.1366 12.7568 16.35 12.8184C16.8801 12.9723 17.2501 13.3144 17.2501 13.8993C17.2468 14.4911 16.8534 14.8297 16.33 14.9631C15.6932 15.1273 15.1164 14.9597 14.6729 14.4432C14.3395 14.0532 12.7692 13.6975 12.6525 14.0361C12.4291 14.6792 12.7792 15.2402 13.2293 15.6814C13.4827 15.9345 13.7828 16.174 14.1062 16.3142C15.3097 16.8308 16.54 16.8307 17.7369 16.3006C18.7105 15.8696 19.2939 15.0897 19.2839 13.9814C19.2739 12.8868 18.6571 12.2095 17.4535 11.9051Z" fill="#F2D961"/>
<path d="M6.54851 14.3818C5.46161 13.9371 4.57143 13.5608 3.66791 13.2085C3.3445 13.082 3.17447 12.9041 3.1778 12.5244C3.19114 11.0467 3.19114 9.56901 3.1778 8.09132C3.17447 7.70479 3.29116 7.55428 3.69458 7.52007C6.02506 7.32168 6.02173 7.31142 6.19176 9.66137C6.29512 11.187 6.41848 12.7125 6.54851 14.3818Z" fill="#F9F7F5"/>
<path d="M28.8126 10.4718C28.7459 11.2004 29.1293 12.2266 28.6692 12.9107C28.2125 13.5914 27.1622 13.653 26.3788 13.9985C25.4752 14.3953 25.4519 14.3713 25.5119 13.3793C25.6153 11.6519 25.7553 9.92452 25.852 8.19369C25.882 7.68402 26.082 7.5301 26.5721 7.51641C28.8126 7.45484 28.8126 7.44116 28.8126 9.72613C28.8126 9.92794 28.8126 10.1298 28.8126 10.4718Z" fill="#F9F7F5"/>
<path d="M17.4539 11.9051C18.6575 12.2061 19.2709 12.8834 19.2843 13.9883C19.2976 15.0965 18.7108 15.8764 17.7373 16.3074C16.5404 16.8376 15.3101 16.8376 14.1065 16.3211C13.7831 16.1843 13.4864 15.9414 13.2297 15.6883C12.7829 15.2436 12.4295 14.6861 12.6529 14.043C12.7696 13.7043 14.3399 14.0601 14.6733 14.45C15.1167 14.9665 15.6902 15.1342 16.3303 14.97C16.8538 14.8331 17.2472 14.4945 17.2505 13.9061C17.2538 13.3212 16.8804 12.9792 16.3503 12.8252C16.137 12.7637 15.9036 12.6816 15.6969 12.7192C14.89 12.856 14.78 12.4216 14.8367 11.7477C14.8667 11.3988 14.94 11.2073 15.3101 11.2381C15.4735 11.2518 15.6435 11.2415 15.8069 11.2176C16.3837 11.132 16.9004 10.9508 17.0438 10.2735C17.1538 9.73986 16.8771 9.36701 16.457 9.16177C15.8802 8.88128 15.1801 8.93259 14.89 9.49699C14.5233 10.2085 13.9965 10.058 13.4464 10.1264C12.6229 10.229 12.6762 9.77406 12.8563 9.2336C13.2197 8.13901 14.55 7.35568 15.9736 7.41041C16.5004 7.43094 17.0305 7.50277 17.5106 7.74221C18.4041 8.18689 18.9542 8.91207 18.9642 9.94851C18.9742 10.9029 18.4608 11.5357 17.4539 11.9051Z" fill="#0B0B10"/>
</svg>
