<svg width="33" height="34" viewBox="0 0 33 34" fill="none" xmlns="http://www.w3.org/2000/svg">
<path d="M16.9895 1.00006C20.0435 1.00006 23.0975 0.996635 26.1514 1.00006C27.1983 1.00006 27.375 1.17793 27.3384 2.24858C27.315 2.96007 27.365 3.67498 27.2017 4.3762C27.0683 4.94744 27.3083 5.12874 27.8585 5.11505C28.9954 5.08085 30.1356 5.09453 31.2725 5.10821C32.3627 5.1219 32.9795 5.74445 32.9862 6.85957C32.9995 9.51054 32.9829 12.1581 32.9962 14.8091C32.9995 15.7463 32.5194 16.2731 31.7226 16.5981C29.9956 17.2993 28.2819 18.0347 26.5482 18.7154C26.1148 18.8864 25.868 19.143 25.7047 19.5706C24.7545 22.0608 23.0441 23.8053 20.6636 24.8486C20.0902 25.0983 19.9802 25.3685 20.0902 25.9979C20.2969 27.1814 20.3802 28.3752 21.3771 29.2235C21.9972 29.7503 22.7574 29.9385 23.4775 30.2224C24.8145 30.7423 25.3679 31.8164 24.9579 33.1915C24.7845 33.7695 24.3444 33.8448 23.8343 33.8448C21.087 33.8345 18.3365 33.8414 15.5892 33.8414C13.9522 33.8414 12.3119 33.8414 10.6749 33.8414C9.06788 33.8414 8.53443 33.0307 9.09455 31.4333C9.25125 30.9852 9.51464 30.6328 9.95806 30.4481C10.1648 30.3626 10.3681 30.26 10.5815 30.2155C13.012 29.6819 13.8455 27.9237 13.9822 25.6045C14.0056 25.2385 13.8522 25.0914 13.5688 24.9751C10.9949 23.8942 9.18457 22.0368 8.19103 19.3619C8.05433 18.9959 7.77761 18.8693 7.45754 18.7394C5.78053 18.0621 4.11018 17.3711 2.43649 16.6802C1.25958 16.1944 0.999529 15.8011 0.999529 14.491C0.999529 12.011 0.996195 9.53449 0.999529 7.05454C1.00286 5.71366 1.56965 5.1219 2.86658 5.11505C3.97682 5.10821 5.08705 5.09111 6.19728 5.1219C6.74406 5.13558 6.90076 4.89613 6.7874 4.40015C6.62737 3.69892 6.67404 2.98059 6.65404 2.27252C6.6207 1.18477 6.7874 1.01032 7.82428 1.01032C10.8816 1.00006 13.9356 1.00006 16.9895 1.00006ZM16.9662 3.56552C14.8557 3.56552 12.7486 3.56894 10.6382 3.56552C10.1414 3.56552 9.71801 3.66471 9.45462 4.17096C9.24125 4.58486 9.49797 4.94744 9.49797 5.33739C9.48463 8.82984 9.75802 12.3086 10.1814 15.7703C10.3915 17.4977 10.8216 19.1943 11.8818 20.6036C13.2287 22.3892 15.1125 22.8031 17.2229 22.7449C20.3269 22.6628 22.4107 21.0551 23.1608 17.956C24.2244 13.5674 24.2277 9.07613 24.3344 4.59854C24.3511 3.8289 23.911 3.55867 23.2142 3.5621C21.1271 3.57236 19.0466 3.56552 16.9662 3.56552ZM7.54756 15.2195C7.41753 13.5708 7.30418 12.0555 7.18082 10.5401C6.99078 8.20045 6.98744 8.21413 4.73364 8.35096C4.29021 8.37832 4.16686 8.54251 4.17019 8.96667C4.18686 10.417 4.18019 11.8673 4.17352 13.3143C4.17352 13.6221 4.2302 13.8684 4.54693 13.995C5.49713 14.3781 6.44066 14.768 7.54756 15.2195ZM26.4715 15.1751C27.4617 14.7886 28.3286 14.4294 29.2054 14.1113C29.6655 13.9437 29.8455 13.6666 29.8255 13.1603C29.7889 12.3086 29.8155 11.4569 29.8155 10.6051C29.8155 8.23808 29.8155 8.25176 27.5317 8.35096C27.0183 8.37148 26.8583 8.58014 26.8416 9.06586C26.8182 9.74314 26.8016 10.4238 26.7316 11.1011C26.5982 12.4181 26.5582 13.7418 26.4715 15.1751Z" fill="#F3DA63"/>
<path d="M16.9669 3.56546C19.0473 3.56546 21.1311 3.57231 23.2115 3.56204C23.9083 3.55862 24.3517 3.82885 24.3317 4.59849C24.225 9.07607 24.2217 13.5673 23.1581 17.956C22.408 21.0551 20.3242 22.6628 17.2202 22.7448C15.1131 22.803 13.2261 22.3891 11.8791 20.6035C10.8189 19.1977 10.3922 17.4976 10.1788 15.7702C9.75535 12.3086 9.48196 8.82979 9.4953 5.33734C9.4953 4.94739 9.23858 4.58481 9.45196 4.17091C9.71534 3.66124 10.1388 3.56204 10.6355 3.56546C12.7493 3.56889 14.8564 3.56546 16.9669 3.56546ZM16.5568 10.3143C16.5568 12.3393 16.5568 14.1899 16.5568 16.037C16.5568 17.4942 16.5568 17.4771 17.9971 17.4292C18.3938 17.4155 18.5138 17.3129 18.5105 16.899C18.4938 14.2207 18.5038 11.5423 18.4972 8.864C18.4972 8.65876 18.5772 8.41932 18.2338 8.34406C16.8202 8.04305 15.7766 8.84347 14.7664 9.61995C14.1763 10.0715 14.6064 10.8206 14.4897 11.5936C15.2165 11.149 15.8166 10.7761 16.5568 10.3143Z" fill="#FDF0A5"/>
<path d="M7.54833 15.2195C6.4381 14.768 5.49457 14.378 4.54771 13.9984C4.23098 13.8718 4.1743 13.6255 4.1743 13.3177C4.18097 11.8673 4.18763 10.417 4.17096 8.97005C4.16763 8.54589 4.29099 8.38171 4.73441 8.35434C6.99155 8.2141 6.99155 8.20041 7.18159 10.5435C7.30495 12.0554 7.42164 13.5674 7.54833 15.2195Z" fill="#F9F8F5"/>
<path d="M26.4717 15.1749C26.5584 13.7417 26.5984 12.4179 26.7317 11.1009C26.8017 10.4202 26.8184 9.74296 26.8418 9.06568C26.8584 8.57995 27.0185 8.37471 27.5319 8.35077C29.8157 8.25157 29.8157 8.23789 29.8157 10.605C29.8157 11.4567 29.789 12.3084 29.8257 13.1602C29.849 13.6664 29.669 13.9435 29.2056 14.1111C28.3287 14.4292 27.4619 14.7884 26.4717 15.1749Z" fill="#F9F8F5"/>
<path d="M16.5562 10.3145C15.8161 10.7763 15.2126 11.1491 14.4924 11.5972C14.6091 10.8242 14.179 10.075 14.7692 9.62352C15.7794 8.84705 16.8229 8.04662 18.2366 8.34764C18.5766 8.41947 18.4999 8.66233 18.4999 8.86757C18.5066 11.5459 18.4966 14.2243 18.5133 16.9026C18.5166 17.3131 18.3966 17.4191 17.9998 17.4328C16.5562 17.4807 16.5595 17.4978 16.5595 16.0406C16.5562 14.19 16.5562 12.3395 16.5562 10.3145Z" fill="#0C0D12"/>
</svg>
