<svg width="33" height="33" viewBox="0 0 33 33" fill="none" xmlns="http://www.w3.org/2000/svg">
<path d="M17.0262 0.0845165C20.0802 0.0845165 23.1341 0.0810959 26.1881 0.0845165C27.1883 0.0845165 27.3517 0.252128 27.3317 1.28857C27.3183 1.99664 27.3717 2.70813 27.1917 3.41277C27.0416 4.00112 27.3017 4.22004 27.8985 4.19952C29.0354 4.16189 30.1756 4.17899 31.3125 4.19267C32.3627 4.20636 32.9795 4.82207 32.9862 5.88588C32.9995 8.56422 32.9795 11.2426 32.9962 13.9243C33.0029 14.8753 32.4828 15.3747 31.6993 15.6962C29.9756 16.4043 28.2585 17.1329 26.5282 17.817C26.1248 17.9743 25.878 18.2104 25.728 18.6037C24.8145 20.9947 23.2275 22.7529 20.937 23.7894C20.2335 24.1075 19.8968 24.4051 20.1202 25.291C20.3436 26.1633 20.3636 27.0834 20.9437 27.8394C21.5471 28.6261 22.4207 28.9135 23.2842 29.2247C24.7978 29.772 25.0245 30.1004 24.9945 31.7081C24.9779 32.6556 24.7345 32.9122 23.7943 32.9122C19.7134 32.9156 15.6292 32.9156 11.5484 32.9156C11.2717 32.9156 10.9916 32.9327 10.7149 32.9122C10.0614 32.8677 9.23791 33.1755 9.01787 32.1528C8.72781 30.8119 9.1679 29.8302 10.2214 29.3992C11.1917 29.0024 12.2319 28.7903 12.9854 27.9181C13.8589 26.909 13.7389 25.6434 13.9689 24.4667C14.0222 24.193 13.7188 24.1178 13.5221 24.0322C10.9916 22.9377 9.1879 21.1145 8.20436 18.4669C8.07434 18.1146 7.81762 17.9538 7.48755 17.8204C5.83387 17.1602 4.19353 16.4658 2.54652 15.7954C1.26292 15.2755 1.00286 14.9026 0.999529 13.5104C0.999529 11.0305 0.996195 8.55054 0.999529 6.07059C1.00286 4.77418 1.56965 4.18583 2.81657 4.17899C3.90013 4.17215 4.98369 4.14137 6.06392 4.18925C6.72072 4.21662 6.9441 3.95323 6.7874 3.34094C6.59736 2.60893 6.70072 1.86666 6.65071 1.13122C6.59736 0.361585 6.95077 0.060573 7.69092 0.0639936C10.8049 0.0947792 13.9156 0.0845165 17.0262 0.0845165ZM16.8428 2.64656C14.7324 2.64656 12.622 2.66366 10.5148 2.63972C9.73135 2.62945 9.40795 3.04677 9.34794 3.76852C9.32126 4.0798 9.33126 4.39449 9.35127 4.70919C9.50797 6.99758 9.70134 9.28597 9.82137 11.5778C9.91472 13.3394 10.1314 15.0771 10.5215 16.7908C11.7684 22.2706 17.3129 22.9992 20.7803 20.7861C22.294 19.818 22.9108 18.1967 23.3108 16.5206C24.1477 13.0281 24.1377 9.4399 24.3277 5.87562C24.3544 5.36594 24.2977 4.85627 24.4044 4.3466C24.6445 3.18017 24.231 2.65682 23.0908 2.6534C21.007 2.64313 18.9266 2.64656 16.8428 2.64656ZM29.8389 10.189C29.7255 9.34412 30.1556 8.28373 29.6422 7.59961C29.2788 7.11388 28.2852 7.49357 27.5751 7.44226C27.5484 7.43884 27.5184 7.44568 27.4917 7.44226C27.035 7.40806 26.8382 7.63723 26.8382 8.09902C26.8316 9.79906 26.6215 11.4854 26.5115 13.1786C26.4382 14.2869 26.4782 14.2972 27.465 13.8696C28.2219 13.5412 29.2387 13.4762 29.6755 12.8229C30.1323 12.1353 29.7522 11.1126 29.8389 10.189ZM7.51422 14.263C7.37752 12.0669 7.2575 10.0077 7.11414 7.94509C7.10413 7.79459 6.98411 7.63382 6.87409 7.51752C6.75406 7.39095 4.45358 7.40121 4.32355 7.50041C4.17019 7.62013 4.17352 7.79459 4.17352 7.96562C4.17352 9.47411 4.17352 10.9826 4.17352 12.4911C4.17352 12.7374 4.2402 12.9392 4.48359 13.0384C5.45712 13.4352 6.43066 13.8286 7.51422 14.263Z" fill="#BEBFC2"/>
<path d="M16.8435 2.64658C18.924 2.64658 21.0077 2.64316 23.0882 2.65C24.2317 2.65342 24.6451 3.17677 24.4018 4.3432C24.2951 4.8563 24.3517 5.36255 24.3251 5.87222C24.135 9.43651 24.145 13.0247 23.3082 16.5172C22.9081 18.1933 22.2913 19.8181 20.7777 20.7827C17.3103 22.9958 11.7658 22.2672 10.5189 16.7874C10.1288 15.0737 9.91207 13.336 9.81872 11.5744C9.69536 9.28257 9.50532 6.99418 9.34862 4.70579C9.32862 4.39451 9.31861 4.07639 9.34529 3.76512C9.4053 3.04337 9.7287 2.62947 10.5122 2.63631C12.626 2.66368 14.7331 2.64658 16.8435 2.64658ZM16.7068 14.8411C16.6735 14.7727 16.6401 14.7008 16.6068 14.6324C17.4203 13.832 18.2671 13.0692 19.0373 12.2277C19.8875 11.2973 20.3042 10.2027 19.7508 8.94393C19.2073 7.71593 18.1238 7.3944 16.9402 7.32599C15.2298 7.23021 13.9296 8.24955 13.7529 9.77172C13.7329 9.95302 13.5962 10.2403 13.8562 10.278C14.3197 10.343 14.7964 10.3259 15.2665 10.3088C15.6699 10.2951 15.5599 9.89144 15.6733 9.65884C15.9867 9.0226 16.7502 8.74212 17.3803 9.05339C18.0304 9.37151 18.2872 10.1172 17.9404 10.7842C17.637 11.3657 17.1602 11.8172 16.6935 12.2653C15.84 13.0829 15.0031 13.9141 14.1229 14.6974C13.5928 15.1695 13.7562 15.7749 13.8429 16.2812C13.9229 16.7532 14.453 16.4795 14.7698 16.483C16.3501 16.5138 17.9371 16.4624 19.5174 16.5138C20.2076 16.5377 20.1209 16.1272 20.1142 15.6996C20.1075 15.2652 20.2542 14.7692 19.4974 14.8205C18.5639 14.8855 17.6337 14.8411 16.7068 14.8411Z" fill="#E0E3E5"/>
<path d="M29.8389 10.189C29.7522 11.1125 30.1323 12.1353 29.6722 12.8228C29.2388 13.4728 28.2219 13.5412 27.4617 13.8696C26.4749 14.2971 26.4348 14.2835 26.5082 13.1786C26.6215 11.4854 26.8283 9.79903 26.8349 8.09898C26.8383 7.6372 27.0316 7.41145 27.4884 7.44223C27.5151 7.44565 27.5451 7.43881 27.5717 7.44223C28.2819 7.49354 29.2721 7.11043 29.6388 7.59958C30.1556 8.2837 29.7255 9.34409 29.8389 10.189Z" fill="#F8F8F8"/>
<path d="M7.5151 14.263C6.43154 13.8252 5.45801 13.4352 4.4878 13.0418C4.24442 12.9426 4.17774 12.7374 4.17774 12.4945C4.17774 10.986 4.17774 9.47755 4.17774 7.96906C4.17774 7.79803 4.17441 7.62359 4.32777 7.50386C4.4578 7.40467 6.75828 7.3944 6.8783 7.52096C6.98833 7.63726 7.10835 7.79803 7.11835 7.94854C7.25838 10.0077 7.38174 12.0704 7.5151 14.263Z" fill="#F8F8F8"/>
<path d="M16.7067 14.8411C17.6336 14.8411 18.5671 14.889 19.4906 14.8275C20.2474 14.7762 20.1007 15.2722 20.1074 15.7066C20.1141 16.1342 20.2041 16.5412 19.5106 16.5207C17.9303 16.4694 16.3466 16.5207 14.763 16.4899C14.4462 16.483 13.9161 16.7601 13.8361 16.2881C13.7494 15.7784 13.5861 15.1764 14.1162 14.7043C14.9963 13.921 15.8365 13.0864 16.6867 12.2723C17.1535 11.8242 17.6269 11.3761 17.9336 10.7911C18.2837 10.1241 18.0236 9.37842 17.3735 9.06031C16.7434 8.75245 15.9799 9.02953 15.6665 9.66576C15.5531 9.89494 15.6632 10.2986 15.2597 10.3157C14.7896 10.3328 14.3129 10.3533 13.8494 10.2849C13.5894 10.2473 13.7261 9.95993 13.7461 9.77864C13.9195 8.25304 15.2231 7.23712 16.9334 7.3329C18.117 7.39789 19.2006 7.71943 19.744 8.95085C20.3008 10.2096 19.8807 11.3042 19.0305 12.2346C18.2604 13.0761 17.4135 13.8423 16.6 14.6393C16.64 14.7009 16.6734 14.7693 16.7067 14.8411Z" fill="#0B0C14"/>
</svg>
