<svg width="130" height="130" viewBox="0 0 130 130" fill="none" xmlns="http://www.w3.org/2000/svg">
<path d="M113.925 6.36914H16.0743C11.7757 6.36914 8.29102 9.85382 8.29102 14.1524V95.7472C8.29102 100.046 11.7757 103.53 16.0743 103.53H113.925C118.224 103.53 121.708 100.046 121.708 95.7472V14.1524C121.708 9.85382 118.224 6.36914 113.925 6.36914Z" fill="#CECECE"/>
<path d="M13.3691 95.7472V14.1524C13.3691 13.1302 13.5705 12.1181 13.9617 11.1737C14.3528 10.2294 14.9262 9.37137 15.649 8.64862C16.3718 7.92587 17.2299 7.35257 18.1742 6.96146C19.1186 6.57034 20.1307 6.36907 21.1529 6.36914H16.0748C15.0526 6.36907 14.0405 6.57034 13.0961 6.96146C12.1517 7.35257 11.2936 7.92587 10.5709 8.64862C9.84806 9.37137 9.2747 10.2294 8.88353 11.1737C8.49235 12.1181 8.29102 13.1302 8.29102 14.1524V95.7472C8.29102 97.8114 9.11103 99.7911 10.5707 101.251C12.0303 102.71 14.01 103.53 16.0743 103.53H21.1524C19.0881 103.53 17.1084 102.71 15.6488 101.251C14.1892 99.7911 13.3691 97.8114 13.3691 95.7472Z" fill="#AFAFAF"/>
<path d="M116.631 95.7472V14.1524C116.631 12.0881 115.811 10.1084 114.351 8.6488C112.892 7.18916 110.912 6.36914 108.848 6.36914H113.926C115.99 6.36914 117.97 7.18916 119.429 8.6488C120.889 10.1084 121.709 12.0881 121.709 14.1524V95.7472C121.709 97.8114 120.889 99.7911 119.429 101.251C117.97 102.71 115.99 103.53 113.926 103.53H108.848C110.912 103.53 112.892 102.71 114.351 101.251C115.811 99.7911 116.631 97.8114 116.631 95.7472Z" fill="#E2E2E2"/>
<path d="M121.709 14.1524C121.709 12.0881 120.889 10.1084 119.429 8.6488C117.97 7.18916 115.99 6.36914 113.926 6.36914H16.0748C15.0526 6.36907 14.0405 6.57034 13.0961 6.96146C12.1517 7.35257 11.2936 7.92587 10.5709 8.64862C9.84806 9.37137 9.2747 10.2294 8.88353 11.1737C8.49235 12.1181 8.29102 13.1302 8.29102 14.1524V27.6973H121.709V14.1524Z" fill="#F8AF23"/>
<path d="M21.1529 6.36914H16.0748C15.0526 6.36907 14.0405 6.57034 13.0961 6.96146C12.1517 7.35257 11.2936 7.92587 10.5709 8.64862C9.84806 9.37137 9.2747 10.2294 8.88353 11.1737C8.49235 12.1181 8.29102 13.1302 8.29102 14.1524V27.6973H13.3691V14.1524C13.3691 13.1302 13.5705 12.1181 13.9617 11.1737C14.3528 10.2294 14.9262 9.37137 15.649 8.64862C16.3718 7.92587 17.2299 7.35257 18.1742 6.96146C19.1186 6.57034 20.1307 6.36907 21.1529 6.36914Z" fill="#F87023"/>
<path d="M108.848 6.36914H113.926C115.99 6.36914 117.97 7.18916 119.429 8.6488C120.889 10.1084 121.709 12.0881 121.709 14.1524V27.6973H116.631V14.1524C116.631 12.0881 115.811 10.1084 114.351 8.6488C112.892 7.18916 110.912 6.36914 108.848 6.36914Z" fill="#F8D323"/>
<path d="M22.1855 20.5879C24.1487 20.5879 25.7402 18.9964 25.7402 17.0332C25.7402 15.07 24.1487 13.4785 22.1855 13.4785C20.2223 13.4785 18.6309 15.07 18.6309 17.0332C18.6309 18.9964 20.2223 20.5879 22.1855 20.5879Z" fill="#F46275"/>
<path d="M35.8774 20.5879C37.8406 20.5879 39.4321 18.9964 39.4321 17.0332C39.4321 15.07 37.8406 13.4785 35.8774 13.4785C33.9142 13.4785 32.3228 15.07 32.3228 17.0332C32.3228 18.9964 33.9142 20.5879 35.8774 20.5879Z" fill="#F46275"/>
<path d="M49.5688 20.5879C51.532 20.5879 53.1235 18.9964 53.1235 17.0332C53.1235 15.07 51.532 13.4785 49.5688 13.4785C47.6056 13.4785 46.0142 15.07 46.0142 17.0332C46.0142 18.9964 47.6056 20.5879 49.5688 20.5879Z" fill="#F46275"/>
<path d="M108.662 14.5586H63.6833C62.1876 14.5586 60.9751 15.7711 60.9751 17.2668V17.2673C60.9751 18.7629 62.1876 19.9754 63.6833 19.9754H108.662C110.158 19.9754 111.37 18.7629 111.37 17.2673V17.2668C111.37 15.7711 110.158 14.5586 108.662 14.5586Z" fill="#F46275"/>
<path d="M65.0005 118.058C87.4724 118.058 105.689 99.8406 105.689 77.3687C105.689 54.8968 87.4724 36.6797 65.0005 36.6797C42.5286 36.6797 24.3115 54.8968 24.3115 77.3687C24.3115 99.8406 42.5286 118.058 65.0005 118.058Z" fill="#F46275"/>
<path d="M29.3889 77.368C29.3896 67.017 33.3356 57.0554 40.4234 49.5118C47.5112 41.9682 57.2079 37.4098 67.5388 36.7648C66.6984 36.714 65.8534 36.678 64.9997 36.678C59.6443 36.6591 54.3379 37.6976 49.3846 39.7339C44.4314 41.7702 39.9289 44.7643 36.1354 48.5445C32.3418 52.3247 29.3318 56.8165 27.278 61.7625C25.2242 66.7085 24.167 72.0113 24.167 77.3667C24.167 82.7222 25.2242 88.0249 27.278 92.9709C29.3318 97.9169 32.3418 102.409 36.1354 106.189C39.9289 109.969 44.4314 112.963 49.3846 115C54.3379 117.036 59.6443 118.074 64.9997 118.055C65.8534 118.055 66.6984 118.02 67.5388 117.969C57.2083 117.324 47.5121 112.766 40.4243 105.223C33.3365 97.6795 29.3902 87.7186 29.3889 77.368Z" fill="#F43075"/>
<path d="M100.611 77.368C100.61 67.017 96.6641 57.0554 89.5763 49.5118C82.4885 41.9682 72.7918 37.4098 62.4609 36.7648C63.3014 36.714 64.1464 36.678 65 36.678C70.3554 36.6591 75.6619 37.6976 80.6151 39.7339C85.5683 41.7702 90.0708 44.7643 93.8643 48.5445C97.6579 52.3247 100.668 56.8165 102.722 61.7625C104.776 66.7085 105.833 72.0113 105.833 77.3667C105.833 82.7222 104.776 88.0249 102.722 92.9709C100.668 97.9169 97.6579 102.409 93.8643 106.189C90.0708 109.969 85.5683 112.963 80.6151 115C75.6619 117.036 70.3554 118.074 65 118.055C64.1464 118.055 63.3014 118.02 62.4609 117.969C72.7914 117.324 82.4877 112.766 89.5754 105.223C96.6632 97.6795 100.61 87.7186 100.611 77.368Z" fill="#F48875"/>
<path d="M13.875 122.867H4.73438C4.53235 122.867 4.33861 122.947 4.19576 123.09C4.05291 123.233 3.97266 123.427 3.97266 123.629C3.97266 123.831 4.05291 124.025 4.19576 124.168C4.33861 124.31 4.53235 124.391 4.73438 124.391H13.875C14.077 124.391 14.2708 124.31 14.4136 124.168C14.5565 124.025 14.6367 123.831 14.6367 123.629C14.6367 123.427 14.5565 123.233 14.4136 123.09C14.2708 122.947 14.077 122.867 13.875 122.867Z" fill="#3F3679"/>
<path d="M125.267 122.867H116.126C115.924 122.867 115.731 122.947 115.588 123.09C115.445 123.233 115.365 123.427 115.365 123.629C115.365 123.831 115.445 124.025 115.588 124.168C115.731 124.31 115.924 124.391 116.126 124.391H125.267C125.469 124.391 125.663 124.31 125.806 124.168C125.949 124.025 126.029 123.831 126.029 123.629C126.029 123.427 125.949 123.233 125.806 123.09C125.663 122.947 125.469 122.867 125.267 122.867Z" fill="#3F3679"/>
<path d="M110.947 122.867H19.0542C18.8522 122.867 18.6584 122.947 18.5156 123.09C18.3727 123.233 18.2925 123.427 18.2925 123.629C18.2925 123.831 18.3727 124.025 18.5156 124.168C18.6584 124.31 18.8522 124.391 19.0542 124.391H110.947C111.149 124.391 111.343 124.31 111.486 124.168C111.628 124.025 111.709 123.831 111.709 123.629C111.709 123.427 111.628 123.233 111.486 123.09C111.343 122.947 111.149 122.867 110.947 122.867Z" fill="#3F3679"/>
<path d="M4.73291 118.819H125.267C125.469 118.819 125.663 118.738 125.806 118.596C125.949 118.453 126.029 118.259 126.029 118.057C126.029 117.855 125.949 117.661 125.806 117.518C125.663 117.375 125.469 117.295 125.267 117.295H76.1065C84.0355 115.076 91.126 110.551 96.4768 104.293H113.925C116.191 104.29 118.363 103.389 119.965 101.787C121.567 100.185 122.468 98.0132 122.47 95.7477V14.1524C122.468 11.8869 121.567 9.71494 119.965 8.113C118.363 6.51107 116.191 5.60998 113.925 5.60742H16.0749C13.8094 5.60998 11.6375 6.51107 10.0355 8.113C8.43358 9.71494 7.53249 11.8869 7.52994 14.1524V95.7477C7.53249 98.0132 8.43358 100.185 10.0355 101.787C11.6375 103.389 13.8094 104.29 16.0749 104.293H33.5233C38.8742 110.551 45.9646 115.076 53.8937 117.295H4.73291C4.53089 117.295 4.33714 117.375 4.19429 117.518C4.05144 117.661 3.97119 117.855 3.97119 118.057C3.97119 118.259 4.05144 118.453 4.19429 118.596C4.33714 118.738 4.53089 118.819 4.73291 118.819ZM9.05338 14.1524C9.05553 12.2908 9.79598 10.5061 11.1123 9.18979C12.4286 7.87347 14.2133 7.13301 16.0749 7.13086H113.926C115.787 7.13301 117.572 7.87347 118.888 9.18979C120.205 10.5061 120.945 12.2908 120.947 14.1524V26.9355H9.05338V14.1524ZM16.0749 102.769C14.2133 102.767 12.4286 102.027 11.1123 100.71C9.79598 99.3939 9.05553 97.6092 9.05338 95.7477V28.459H120.947V95.7477C120.945 97.6092 120.205 99.3939 118.888 100.71C117.572 102.027 115.787 102.767 113.926 102.769H97.721C102.484 96.644 105.433 89.3047 106.231 81.5863C107.029 73.868 105.645 66.0807 102.236 59.1103C98.8263 52.14 93.5289 46.2665 86.9462 42.1583C80.3635 38.0501 72.7598 35.8721 65.0003 35.8721C57.2409 35.8721 49.6372 38.0501 43.0545 42.1583C36.4718 46.2665 31.1744 52.14 27.7651 59.1103C24.3557 66.0807 22.9714 73.868 23.7695 81.5863C24.5676 89.3047 27.5162 96.644 32.2797 102.769H16.0749ZM25.0728 77.3679C25.0728 69.4711 27.4145 61.7515 31.8018 55.1855C36.189 48.6195 42.4248 43.5019 49.7206 40.4799C57.0163 37.4579 65.0444 36.6672 72.7895 38.2079C80.5346 39.7485 87.649 43.5512 93.2329 49.1351C98.8169 54.719 102.62 61.8334 104.16 69.5785C105.701 77.3236 104.91 85.3517 101.888 92.6474C98.8661 99.9432 93.7485 106.179 87.1825 110.566C80.6165 114.953 72.897 117.295 65.0001 117.295C54.4144 117.283 44.2657 113.073 36.7805 105.588C29.2952 98.1023 25.0848 87.9536 25.0728 77.3679Z" fill="#3F3679"/>
<path d="M22.1856 12.7168C21.3318 12.7168 20.4973 12.9699 19.7875 13.4442C19.0777 13.9185 18.5244 14.5927 18.1977 15.3814C17.871 16.1701 17.7855 17.038 17.9521 17.8753C18.1186 18.7126 18.5297 19.4817 19.1334 20.0854C19.7371 20.689 20.5062 21.1001 21.3435 21.2667C22.1808 21.4332 23.0486 21.3477 23.8374 21.021C24.6261 20.6943 25.3002 20.1411 25.7745 19.4313C26.2488 18.7214 26.502 17.8869 26.502 17.0332C26.5006 15.8888 26.0454 14.7917 25.2362 13.9825C24.427 13.1733 23.3299 12.7181 22.1856 12.7168ZM22.1856 19.8262C21.6332 19.8262 21.0932 19.6624 20.6339 19.3555C20.1746 19.0486 19.8166 18.6124 19.6052 18.102C19.3938 17.5917 19.3385 17.0301 19.4462 16.4883C19.554 15.9465 19.82 15.4489 20.2106 15.0583C20.6012 14.6677 21.0989 14.4017 21.6407 14.2939C22.1825 14.1861 22.744 14.2414 23.2544 14.4528C23.7647 14.6642 24.2009 15.0222 24.5078 15.4815C24.8147 15.9408 24.9785 16.4808 24.9785 17.0332C24.9776 17.7737 24.683 18.4835 24.1594 19.0071C23.6359 19.5307 22.926 19.8252 22.1856 19.8262Z" fill="#3F3679"/>
<path d="M35.877 12.7168C35.0233 12.7168 34.1887 12.9699 33.4789 13.4442C32.7691 13.9185 32.2158 14.5927 31.8891 15.3814C31.5624 16.1701 31.4769 17.038 31.6435 17.8753C31.81 18.7126 32.2211 19.4817 32.8248 20.0854C33.4285 20.689 34.1976 21.1001 35.0349 21.2667C35.8722 21.4332 36.7401 21.3477 37.5288 21.021C38.3175 20.6943 38.9916 20.1411 39.4659 19.4313C39.9402 18.7214 40.1934 17.8869 40.1934 17.0332C40.192 15.8888 39.7368 14.7917 38.9276 13.9825C38.1184 13.1733 37.0213 12.7181 35.877 12.7168ZM35.877 19.8262C35.3246 19.8262 34.7846 19.6624 34.3253 19.3555C33.866 19.0486 33.508 18.6124 33.2966 18.102C33.0852 17.5917 33.0299 17.0301 33.1377 16.4883C33.2454 15.9465 33.5114 15.4489 33.902 15.0583C34.2926 14.6677 34.7903 14.4017 35.3321 14.2939C35.8739 14.1861 36.4354 14.2414 36.9458 14.4528C37.4561 14.6642 37.8923 15.0222 38.1992 15.4815C38.5061 15.9408 38.6699 16.4808 38.6699 17.0332C38.669 17.7737 38.3744 18.4835 37.8508 19.0071C37.3273 19.5307 36.6174 19.8252 35.877 19.8262Z" fill="#3F3679"/>
<path d="M49.5684 12.7168C48.7147 12.7168 47.8801 12.9699 47.1703 13.4442C46.4605 13.9185 45.9072 14.5927 45.5805 15.3814C45.2538 16.1701 45.1683 17.038 45.3349 17.8753C45.5014 18.7126 45.9125 19.4817 46.5162 20.0854C47.1199 20.689 47.889 21.1001 48.7263 21.2667C49.5636 21.4332 50.4314 21.3477 51.2202 21.021C52.0089 20.6943 52.683 20.1411 53.1573 19.4313C53.6316 18.7214 53.8848 17.8869 53.8848 17.0332C53.8834 15.8888 53.4282 14.7917 52.619 13.9825C51.8098 13.1733 50.7127 12.7181 49.5684 12.7168ZM49.5684 19.8262C49.016 19.8262 48.476 19.6624 48.0167 19.3555C47.5574 19.0486 47.1994 18.6124 46.988 18.102C46.7766 17.5917 46.7213 17.0301 46.8291 16.4883C46.9368 15.9465 47.2028 15.4489 47.5934 15.0583C47.984 14.6677 48.4817 14.4017 49.0235 14.2939C49.5653 14.1861 50.1268 14.2414 50.6372 14.4528C51.1475 14.6642 51.5837 15.0222 51.8906 15.4815C52.1975 15.9408 52.3613 16.4808 52.3613 17.0332C52.3604 17.7737 52.0658 18.4835 51.5422 19.0071C51.0187 19.5307 50.3088 19.8252 49.5684 19.8262Z" fill="#3F3679"/>
<path d="M108.662 13.7969H63.683C62.7627 13.7969 61.88 14.1625 61.2293 14.8133C60.5785 15.464 60.2129 16.3467 60.2129 17.267C60.2129 18.1873 60.5785 19.07 61.2293 19.7208C61.88 20.3715 62.7627 20.7371 63.683 20.7371H108.662C109.582 20.7371 110.465 20.3715 111.115 19.7208C111.766 19.07 112.132 18.1873 112.132 17.267C112.132 16.3467 111.766 15.464 111.115 14.8133C110.465 14.1625 109.582 13.7969 108.662 13.7969ZM108.662 19.2137H63.683C63.1667 19.2137 62.6716 19.0086 62.3065 18.6435C61.9414 18.2785 61.7363 17.7833 61.7363 17.267C61.7363 16.7507 61.9414 16.2556 62.3065 15.8905C62.6716 15.5254 63.1667 15.3203 63.683 15.3203H108.662C109.178 15.3203 109.673 15.5254 110.038 15.8905C110.403 16.2556 110.608 16.7507 110.608 17.267C110.608 17.7833 110.403 18.2785 110.038 18.6435C109.673 19.0086 109.178 19.2137 108.662 19.2137Z" fill="#3F3679"/>
<path d="M51.4515 77.1957C51.9775 77.7081 52.6842 77.9928 53.4186 77.988C54.1529 77.9832 54.8559 77.6894 55.3752 77.1701C55.8945 76.6509 56.1884 75.948 56.1933 75.2136C56.1982 74.4793 55.9136 73.7725 55.4013 73.2464L51.1108 68.9559L55.4013 64.6654C55.9136 64.1393 56.1982 63.4326 56.1933 62.6982C56.1884 61.9639 55.8945 61.261 55.3752 60.7417C54.8559 60.2225 54.1529 59.9287 53.4186 59.9239C52.6842 59.9191 51.9775 60.2037 51.4515 60.7162L47.1615 65.0062L42.8715 60.7162C42.3455 60.2037 41.6388 59.9191 40.9044 59.9239C40.1701 59.9287 39.4671 60.2225 38.9478 60.7417C38.4285 61.261 38.1346 61.9639 38.1297 62.6982C38.1248 63.4326 38.4094 64.1393 38.9217 64.6654L43.2122 68.9559L38.9217 73.2464C38.6568 73.5045 38.4457 73.8127 38.3009 74.153C38.156 74.4933 38.0801 74.859 38.0777 75.2289C38.0753 75.5987 38.1464 75.9654 38.2868 76.3076C38.4272 76.6497 38.6342 76.9606 38.8958 77.2221C39.1574 77.4837 39.4683 77.6906 39.8105 77.831C40.1526 77.9714 40.5193 78.0425 40.8892 78.04C41.259 78.0375 41.6247 77.9616 41.965 77.8167C42.3053 77.6718 42.6134 77.4607 42.8715 77.1957L47.1615 72.9057L51.4515 77.1957Z" fill="#3F3679"/>
<path d="M86.7883 68.9557L91.0788 64.6652C91.3455 64.4076 91.5583 64.0994 91.7047 63.7586C91.8511 63.4179 91.9281 63.0514 91.9313 62.6805C91.9345 62.3097 91.8639 61.9419 91.7234 61.5986C91.583 61.2554 91.3756 60.9436 91.1134 60.6813C90.8511 60.4191 90.5393 60.2117 90.1961 60.0713C89.8528 59.9308 89.485 59.8602 89.1142 59.8634C88.7433 59.8666 88.3768 59.9437 88.0361 60.09C87.6953 60.2364 87.3871 60.4492 87.1295 60.7159L82.839 65.0064L78.5485 60.7159C78.2909 60.4492 77.9827 60.2364 77.6419 60.09C77.3012 59.9437 76.9347 59.8666 76.5638 59.8634C76.193 59.8602 75.8252 59.9308 75.4819 60.0713C75.1387 60.2117 74.8269 60.4191 74.5646 60.6813C74.3024 60.9436 74.095 61.2554 73.9546 61.5986C73.8141 61.9419 73.7435 62.3097 73.7467 62.6805C73.7499 63.0514 73.827 63.4179 73.9733 63.7586C74.1197 64.0994 74.3325 64.4076 74.5992 64.6652L78.8897 68.9557L74.5992 73.2462C74.3325 73.5038 74.1197 73.812 73.9733 74.1528C73.827 74.4935 73.7499 74.86 73.7467 75.2309C73.7435 75.6017 73.8141 75.9695 73.9546 76.3127C74.095 76.656 74.3024 76.9678 74.5646 77.2301C74.8269 77.4923 75.1387 77.6997 75.4819 77.8401C75.8252 77.9806 76.193 78.0512 76.5638 78.048C76.9347 78.0448 77.3012 77.9677 77.6419 77.8214C77.9827 77.675 78.2909 77.4622 78.5485 77.1955L82.839 72.905L87.1295 77.1955C87.6563 77.7042 88.3618 77.9857 89.0941 77.9794C89.8264 77.973 90.5269 77.6793 91.0447 77.1614C91.5626 76.6436 91.8563 75.9431 91.8627 75.2108C91.869 74.4785 91.5875 73.773 91.0788 73.2462L86.7883 68.9557Z" fill="#3F3679"/>
<path d="M65.0005 88.0742C62.1823 88.0727 59.4165 88.8364 56.9984 90.2838C54.5802 91.7312 52.6004 93.8081 51.2703 96.2927C51.0885 96.6164 50.9731 96.9731 50.9308 97.342C50.8885 97.7109 50.9202 98.0845 51.024 98.441C51.1277 98.7974 51.3016 99.1296 51.5353 99.4182C51.769 99.7067 52.0578 99.9457 52.385 100.121C52.7122 100.297 53.0711 100.405 53.4407 100.441C53.8103 100.476 54.1832 100.437 54.5376 100.326C54.8921 100.216 55.2209 100.036 55.5049 99.7964C55.7888 99.5572 56.0223 99.2638 56.1915 98.9333C57.0453 97.3395 58.3155 96.0073 59.8668 95.0785C61.418 94.1497 63.1922 93.6592 65.0003 93.6592C66.8083 93.6592 68.5825 94.1497 70.1338 95.0785C71.685 96.0073 72.9552 97.3395 73.809 98.9333C74.1672 99.5711 74.7612 100.043 75.4635 100.247C76.1658 100.452 76.9203 100.373 77.5649 100.027C78.2094 99.681 78.6926 99.0961 78.9105 98.3978C79.1284 97.6996 79.0637 96.9437 78.7303 96.2927C77.4002 93.8081 75.4205 91.7314 73.0024 90.284C70.5843 88.8365 67.8187 88.0728 65.0005 88.0742Z" fill="#3F3679"/>
</svg>
