<svg width="72" height="72" viewBox="0 0 72 72" fill="none" xmlns="http://www.w3.org/2000/svg">
<g clip-path="url(#clip0_521_7036)">
<path d="M71.7063 30.7068L59.6553 15.0523C59.2093 14.4734 58.3958 14.3305 57.7789 14.7228L49.9984 19.671H39.8508C39.7196 19.671 39.5888 19.699 39.4625 19.7358L31.5946 22.0006L23.4307 19.7677L15.498 14.7228C14.8916 14.3371 14.0929 14.4679 13.6419 15.0271L0.312703 31.5373C-0.1663 32.1306 -0.0871989 32.9969 0.490682 33.494L7.47689 39.5063L13.7446 47.9526C11.9115 49.9054 11.9472 52.9854 13.8545 54.8932C14.6998 55.738 15.7749 56.2154 16.8806 56.3263C16.8422 56.5768 16.8224 56.8312 16.8224 57.0893C16.8224 58.422 17.3415 59.675 18.2836 60.6171C19.2262 61.5597 20.4792 62.0788 21.8118 62.0788C21.83 62.0788 21.8476 62.0777 21.8651 62.0771C21.8646 62.1112 21.8629 62.1447 21.8629 62.1788C21.8629 63.5114 22.382 64.7644 23.3241 65.707C24.2667 66.6491 25.5197 67.1682 26.8524 67.1682C27.1155 67.1682 27.3759 67.1468 27.6313 67.1072C27.7395 68.2169 28.218 69.2968 29.0661 70.145C30.0384 71.1178 31.3161 71.6039 32.5938 71.6039C33.8715 71.6039 35.1492 71.1178 36.1221 70.145L36.8851 69.382L37.2053 69.6401C38.1699 70.5745 39.4224 71.0414 40.6748 71.0414C41.9525 71.0414 43.2302 70.5553 44.2025 69.5825C45.1951 68.5898 45.6813 67.2797 45.661 65.9762C46.9639 65.996 48.2746 65.5104 49.2672 64.5183C50.2587 63.5262 50.7449 62.2172 50.7257 60.9142C52.083 60.9357 53.3706 60.4144 54.3314 59.4536C55.324 58.461 55.8101 57.1509 55.7898 55.8473C57.0939 55.8671 58.4035 55.3815 59.3961 54.3889C61.0902 52.6948 61.3082 50.0762 60.052 48.1432L64.6283 38.5587L71.5085 32.6382C72.077 32.1487 72.1638 31.3006 71.7063 30.7068ZM15.0465 17.7819L20.7506 21.409L8.34206 36.5262L3.36965 32.2465L15.0465 17.7819ZM15.8512 49.8334L17.5728 48.1119C17.625 48.0597 17.6799 48.0102 17.7359 47.9641C18.0727 47.6894 18.4802 47.5257 18.912 47.4867C18.9241 47.4856 18.9367 47.4856 18.9488 47.4851C19.0103 47.4801 19.0719 47.4768 19.1339 47.4774C19.7239 47.4856 20.2721 47.7268 20.6786 48.1558C21.4762 48.999 21.4334 50.3767 20.583 51.227L18.9137 52.8964C18.0694 53.7407 16.6955 53.7407 15.8512 52.8964C15.0069 52.0516 15.0069 50.6777 15.8512 49.8334ZM20.2804 58.6203C19.8711 58.2116 19.6459 57.6678 19.6459 57.0893C19.6459 56.5109 19.8711 55.9671 20.2804 55.5578L23.6185 52.2197C24.258 51.5802 25.2632 51.405 26.0806 51.7945C26.9232 52.196 27.3973 53.1106 27.2737 54.0308C27.2078 54.5218 26.9793 54.9844 26.6288 55.3354L23.3433 58.6203C22.9341 59.0295 22.3903 59.2547 21.8118 59.2547C21.2334 59.2547 20.6896 59.0295 20.2804 58.6203ZM25.3209 63.7097C24.9116 63.301 24.6864 62.7572 24.6864 62.1788C24.6864 61.6003 24.9116 61.0565 25.3209 60.6473L28.6585 57.3091C29.3424 56.6257 30.4394 56.4785 31.2766 56.9657C32.0412 57.4107 32.4417 58.2841 32.3104 59.1542C32.2384 59.6327 32.011 60.0826 31.6688 60.4248L28.3839 63.7097C27.9746 64.1189 27.4308 64.3442 26.8524 64.3442C26.2739 64.3442 25.7301 64.1189 25.3209 63.7097ZM31.0623 68.1482C30.218 67.3039 30.218 65.93 31.0623 65.0857L32.7839 63.3642C32.8361 63.312 32.8905 63.2631 32.9465 63.217C32.9481 63.2159 32.9492 63.2148 32.9503 63.2137C33.2305 62.9863 33.5595 62.8341 33.9105 62.7676C33.9188 62.7665 33.927 62.7654 33.9353 62.7643C33.9957 62.7533 34.0572 62.7446 34.1187 62.7391C34.1434 62.7369 34.1682 62.7369 34.1934 62.7352C34.244 62.7325 34.294 62.7292 34.345 62.7297C34.9345 62.738 35.4832 62.9786 35.8897 63.4081C35.9397 63.4609 35.9864 63.5158 36.0293 63.5724C36.6785 64.4211 36.5912 65.6818 35.7854 66.4882L34.1248 68.1487C33.2805 68.993 31.9066 68.9925 31.0623 68.1482ZM57.3993 52.3921C56.555 53.237 55.1812 53.2364 54.3369 52.3921C54.3061 52.3614 54.2737 52.3328 54.2407 52.3059L45.1627 43.1323C44.614 42.578 43.7202 42.5737 43.166 43.1224C42.6117 43.6706 42.6073 44.5644 43.1555 45.1186L52.3319 54.3906C52.333 54.3917 52.3341 54.3927 52.3352 54.3938C53.1795 55.2381 53.1795 56.6125 52.3352 57.4568C51.9259 57.8661 51.3821 58.0913 50.8037 58.0913C50.2247 58.0913 49.6809 57.8661 49.2722 57.4568L43.1336 51.2545C42.5853 50.7002 41.6916 50.6958 41.1373 51.2441C40.5831 51.7928 40.5787 52.6866 41.1269 53.2408L47.1716 59.3481C47.2023 59.3866 47.2353 59.4234 47.2705 59.4585C48.1148 60.3028 48.1148 61.6772 47.2705 62.5215C46.4256 63.3658 45.0512 63.3653 44.2069 62.521L40.8566 59.1355C40.3079 58.5813 39.4141 58.5763 38.8599 59.1251C38.3056 59.6733 38.3012 60.5671 38.8494 61.1213L42.1063 64.4117C42.1371 64.4502 42.1701 64.4875 42.2058 64.5227C43.0501 65.367 43.0501 66.7414 42.2058 67.5857C41.3615 68.4305 39.9876 68.43 39.1433 67.5857C39.0461 67.4885 38.9318 67.4137 38.8231 67.3303C38.7308 67.2599 38.7066 67.2111 38.7528 67.099C38.7995 66.9853 38.8692 66.8826 38.9159 66.7683C38.9675 66.6409 39.0093 66.5096 39.0499 66.3777C39.2664 65.6801 39.3301 64.9297 39.2329 64.2057C39.0461 62.8165 38.282 61.563 37.124 60.7698C36.4984 60.3418 35.7744 60.0611 35.024 59.9557C35.3876 58.3517 34.9509 56.6125 33.815 55.4123C32.88 54.4246 31.6171 53.8703 30.2587 53.8517C30.2092 53.8511 30.1598 53.8511 30.1098 53.8517C30.14 52.5553 29.6687 51.2671 28.775 50.3229C27.8395 49.3352 26.5766 48.7809 25.2187 48.7623C24.815 48.7568 24.4074 48.7996 24.0141 48.8902C23.846 47.7207 23.2565 46.6386 22.3639 45.8646C21.4768 45.0967 20.3611 44.6704 19.1729 44.6539C17.9221 44.6358 16.6933 45.0972 15.7644 45.936L10.307 38.5823L23.3631 22.6763L27.5242 23.8145L22.0898 33.4039C21.4328 34.5635 21.2669 35.9093 21.6223 37.1936C21.9777 38.4785 22.8116 39.5475 23.9712 40.2044C24.0437 40.2456 24.1168 40.2846 24.1909 40.322C24.1964 40.3247 24.2019 40.3275 24.208 40.3302C24.403 40.4275 24.6035 40.511 24.8067 40.5813C25.7532 40.9092 26.7755 40.9449 27.7615 40.6725C29.0458 40.3171 30.1148 39.4826 30.7717 38.3236L34.3033 32.0916L40.6089 32.5387L57.3999 49.3291C58.2436 50.174 58.2436 51.5478 57.3993 52.3921ZM57.9843 45.9206L42.2327 30.1695C42.203 30.1393 42.1717 30.1108 42.1393 30.0838C41.9124 29.8949 41.6312 29.7806 41.3345 29.7597L33.6139 29.2121C33.08 29.1753 32.5493 29.4593 32.2857 29.9245L28.3152 36.9316C28.0301 37.4348 27.5659 37.7968 27.0084 37.9512C26.4514 38.1055 25.8669 38.033 25.3632 37.7479C24.86 37.4628 24.498 36.9986 24.3436 36.4411C24.1893 35.8835 24.2612 35.2991 24.5469 34.7959L29.8472 25.4416L31.9951 24.8236C32.0094 24.8192 32.0231 24.8137 32.0374 24.8093L40.0535 22.4945H49.7391L61.8306 37.8655L57.9843 45.9206ZM63.6802 35.6495L52.4983 21.4272L58.2052 17.7978L68.6537 31.3698L63.6802 35.6495Z" fill="#2E51DB"/>
<path d="M43.6193 17.0206C43.9807 17.0206 44.3422 16.8827 44.6179 16.6069L54.2617 6.96314C54.8132 6.41162 54.8132 5.51788 54.2617 4.96637C53.7102 4.41486 52.8165 4.41486 52.265 4.96637L42.6212 14.6102C42.0696 15.1617 42.0696 16.0554 42.6212 16.6069C42.8969 16.8827 43.2584 17.0206 43.6193 17.0206Z" fill="#2E51DB"/>
<path d="M27.3817 16.6069C27.6574 16.8827 28.0189 17.0206 28.3803 17.0206C28.7412 17.0206 29.1027 16.8827 29.3784 16.6069C29.9299 16.0554 29.9299 15.1617 29.3784 14.6102L19.7346 4.96637C19.1831 4.41486 18.2894 4.41486 17.7379 4.96637C17.1863 5.51788 17.1863 6.41162 17.7379 6.96314L27.3817 16.6069Z" fill="#2E51DB"/>
<path d="M36.0001 17.0194C36.7796 17.0194 37.4118 16.3871 37.4118 15.6076V7.62659C37.4118 6.84711 36.7796 6.21484 36.0001 6.21484C35.2206 6.21484 34.5884 6.84711 34.5884 7.62659V15.6076C34.5884 16.3871 35.2206 17.0194 36.0001 17.0194Z" fill="#2E51DB"/>
<path d="M34.6975 2.51036C34.9216 3.05364 35.4803 3.41014 36.0697 3.37938C36.6519 3.34917 37.1634 2.95586 37.3435 2.4016C37.5243 1.84294 37.3276 1.20629 36.8596 0.85033C36.3822 0.486682 35.7165 0.466357 35.2171 0.796496C34.6601 1.16454 34.4442 1.89733 34.6975 2.51036Z" fill="#2E51DB"/>
</g>
<defs>
<clipPath id="clip0_521_7036">
<rect width="72" height="72" fill="white"/>
</clipPath>
</defs>
</svg>
