<svg width="62" height="50" viewBox="0 0 62 50" fill="none" xmlns="http://www.w3.org/2000/svg">
<g clip-path="url(#clip0_9_2327)">
<path d="M-0.00049872 42.7706C0.251658 42.6809 0.156248 42.4293 0.1801 42.2707C0.347069 41.1676 0.46974 40.061 0.612857 38.9544C0.698045 38.3132 0.793456 37.672 0.882051 37.0273C0.892274 36.9584 0.885459 36.8791 0.970647 36.8653C1.07287 36.8481 1.10013 36.9446 1.13421 37.0135C1.40681 37.5651 1.67941 38.1167 1.95202 38.6717C2.57559 39.9541 3.19576 41.2331 3.82275 42.5155C3.85342 42.581 3.87386 42.6878 3.97609 42.6672C4.06468 42.6499 4.06468 42.5465 4.09876 42.4776C4.95746 40.6643 5.82297 38.8544 6.68507 37.0411C6.71915 36.9687 6.77026 36.8825 6.84864 36.8825C6.98494 36.8825 6.94745 37.0204 6.95768 37.0963C7.04968 37.6582 7.13146 38.2201 7.20983 38.782C7.31206 39.5025 7.40406 40.2264 7.50629 40.9469C7.64941 41.9363 7.79593 42.9257 7.94245 43.9151C7.95608 44.0047 7.94245 44.0978 7.85726 44.115C7.70393 44.1426 7.54377 44.1461 7.38703 44.1461C7.14168 44.1461 7.22687 43.9392 7.20302 43.8151C7.02923 42.8051 6.91338 41.7881 6.80093 40.7711C6.74641 40.2851 6.66804 39.8024 6.59989 39.3198C6.58966 39.2543 6.6067 39.1716 6.52151 39.1474C6.41588 39.1164 6.38862 39.2129 6.35454 39.2819C5.98312 40.061 5.61511 40.8435 5.24028 41.6226C4.86545 42.4017 4.48722 43.1774 4.10898 43.9565C4.07491 44.0254 4.05105 44.1185 3.95564 44.1254C3.83979 44.1357 3.81253 44.0254 3.77504 43.9461C3.24006 42.8602 2.70849 41.7743 2.17691 40.6849C1.8975 40.1161 1.62149 39.5473 1.30118 38.8923C1.15465 40.0024 1.00813 41.0228 0.885459 42.0432C0.810493 42.643 0.711675 43.236 0.66397 43.8392C0.629894 44.2805 0.255066 44.1219 -0.00390625 44.153C-0.00049872 43.691 -0.00049872 43.2325 -0.00049872 42.7706Z" fill="#2E51DB"/>
<path d="M62.0003 41.4643C60.5726 41.4643 59.1414 41.4678 57.7137 41.4609C57.4308 41.4609 57.2741 41.4678 57.3559 41.8573C57.5535 42.7846 58.051 43.4086 58.8995 43.5637C59.7855 43.7258 60.5249 43.4465 61.0667 42.6847C61.1553 42.5606 61.1962 42.2848 61.4892 42.4365C61.8436 42.6192 61.8845 42.6881 61.6494 43.026C61.019 43.9292 60.1773 44.3325 59.0665 44.2325C57.9147 44.1291 57.1514 43.5086 56.7834 42.4709C56.3881 41.3506 56.6062 40.2957 57.4206 39.3821C58.5281 38.1342 60.8179 38.3548 61.663 39.9096C61.772 40.1095 61.7584 40.3853 62.0037 40.5025C62.0003 40.8231 62.0003 41.1437 62.0003 41.4643ZM59.3118 40.8472C59.8536 40.8472 60.3988 40.83 60.9406 40.8541C61.2643 40.8679 61.2643 40.7369 61.1757 40.4922C61.0633 40.1888 60.8418 39.982 60.6237 39.7648C59.656 38.7961 57.867 39.2684 57.4888 40.5887C57.4274 40.8059 57.4854 40.8507 57.683 40.8507C58.2248 40.8438 58.77 40.8472 59.3118 40.8472Z" fill="#2E51DB"/>
<path d="M31.5776 50.0002C31.5776 49.8796 31.4413 49.752 31.5435 49.6417C31.6594 49.5176 31.7684 49.6658 31.8775 49.7003C32.2762 49.8175 32.7157 49.5659 32.7907 49.166C32.8043 49.0901 32.8282 48.9936 32.76 48.9384C32.6953 48.8867 32.6408 48.9695 32.5828 49.0005C31.9388 49.3418 31.3561 48.9074 31.3663 48.2628C31.3732 47.9111 31.4004 47.5871 31.6662 47.3182C31.8877 47.0941 32.1433 47.07 32.4159 47.132C32.5828 47.17 32.7157 47.363 32.927 47.1941C33.0054 47.132 33.0735 47.2562 33.0735 47.3596C33.0735 47.9904 33.0803 48.6178 33.0667 49.2487C33.0633 49.4452 32.9645 49.6141 32.8111 49.7555C32.7328 49.8279 32.5965 49.8554 32.5965 50.0002C32.2591 50.0002 31.9184 50.0002 31.5776 50.0002ZM31.7139 48.1249C31.7139 48.5937 31.7889 48.7488 32.0513 48.8178C32.392 48.9074 32.6987 48.7523 32.7702 48.3869C32.8725 47.8732 32.8179 47.5319 32.4193 47.4078C32.1433 47.3216 31.9115 47.4182 31.765 47.6905C31.6935 47.8319 31.7207 47.9801 31.7139 48.1249Z" fill="#2E51DB"/>
<path d="M54.6496 39.6029C54.6496 38.6997 54.6598 37.8551 54.6428 37.0105C54.6359 36.7278 54.7143 36.6382 55.0005 36.6348C55.2868 36.6348 55.3345 36.7416 55.3345 36.9967C55.3277 39.2651 55.3277 41.5334 55.3345 43.8018C55.3345 44.0362 55.3038 44.1603 55.0278 44.1534C54.7586 44.1465 54.6189 44.0775 54.6496 43.7811C54.6666 43.6259 54.653 43.4708 54.6189 43.2709C53.9374 44.1603 53.014 44.3085 52.019 44.2016C51.4022 44.1361 50.9422 43.7707 50.5367 43.3157C49.5178 42.1746 49.7325 40.1993 50.7582 39.2823C51.869 38.2929 53.1537 38.3377 54.6496 39.6029ZM50.5639 41.4334C50.5196 42.6159 51.5317 43.6053 52.5505 43.6087C53.7909 43.6122 54.6905 42.6331 54.7109 41.4472C54.7314 40.2751 53.7807 39.2858 52.6834 39.2547C51.392 39.2203 50.5367 40.3579 50.5639 41.4334Z" fill="#2E51DB"/>
<path d="M27.2563 41.4646C26.5986 41.4646 25.941 41.4646 25.2833 41.4646C24.9119 41.4646 24.9119 41.4957 24.9528 41.8542C25.1334 43.4055 26.6838 43.9536 27.8526 43.3951C28.2445 43.209 28.5341 42.8987 28.7522 42.5367C28.926 42.2472 29.0793 42.4437 29.2258 42.5195C29.3894 42.6022 29.4167 42.716 29.311 42.9091C28.5239 44.3397 26.6804 44.5845 25.4707 43.8674C24.8029 43.471 24.3837 42.8367 24.2372 42.061C24.0021 40.8096 24.4042 39.772 25.3992 39.017C26.2954 38.3379 27.8254 38.4517 28.6466 39.2101C29.1781 39.6996 29.4507 40.2994 29.5904 40.9854C29.6722 41.3922 29.6109 41.4646 29.1952 41.4646C28.5512 41.4646 27.9037 41.4646 27.2563 41.4646ZM26.9496 40.8476C27.505 40.8476 28.0605 40.8441 28.6159 40.8476C28.8135 40.8476 28.8851 40.7993 28.7965 40.5856C28.483 39.8065 27.7845 39.2894 27.0178 39.2618C26.0943 39.2273 25.4707 39.6548 25.0959 40.489C24.9801 40.7476 25.0346 40.8441 25.3174 40.8441C25.8626 40.8476 26.4078 40.8476 26.9496 40.8476Z" fill="#2E51DB"/>
<path d="M47.9136 43.2435C46.5437 44.7017 44.6116 44.5535 43.586 43.0815C42.7988 41.9542 42.8329 40.2616 44.0733 39.2101C45.2352 38.2242 46.8947 38.3621 47.9136 39.6962C47.9136 39.4514 47.9204 39.2791 47.9101 39.1067C47.8965 38.8654 47.9033 38.6965 48.2373 38.7034C48.5678 38.7103 48.6019 38.8654 48.5985 39.1308C48.5882 39.9444 48.5951 40.758 48.5951 41.5715C48.5951 42.3162 48.5848 43.0608 48.5985 43.8054C48.6053 44.0846 48.4894 44.1536 48.2339 44.157C47.9783 44.1639 47.8829 44.0777 47.9101 43.8226C47.9272 43.6572 47.9136 43.4848 47.9136 43.2435ZM47.9136 41.4336C47.9783 40.2374 46.9833 39.2446 45.8315 39.2618C44.5946 39.2791 43.8007 40.2409 43.7802 41.413C43.7598 42.5885 44.6321 43.6089 45.9031 43.602C47.0617 43.5986 48.0021 42.5333 47.9136 41.4336Z" fill="#2E51DB"/>
<path d="M14.4957 41.4367C14.4957 42.2158 14.4888 42.9983 14.4991 43.7774C14.5025 44.0291 14.448 44.1601 14.1617 44.1566C13.8925 44.1566 13.7835 44.0566 13.8142 43.7912C13.821 43.736 13.8176 43.6774 13.8142 43.6188C13.8107 43.543 13.8346 43.4465 13.7358 43.412C13.6472 43.381 13.5927 43.4534 13.5313 43.5051C13.1804 43.8188 12.7953 44.067 12.3319 44.1808C10.8837 44.5324 9.51726 43.6602 9.09132 42.2123C8.76419 41.1057 9.26851 39.6475 10.1715 39.0511C11.2619 38.3306 12.7203 38.4203 13.6029 39.4579C13.6472 39.5096 13.671 39.5924 13.7528 39.5682C13.8346 39.5441 13.8107 39.4545 13.8142 39.389C13.8176 39.2855 13.8278 39.1821 13.8142 39.0787C13.763 38.7581 13.913 38.6926 14.1992 38.7029C14.4445 38.7098 14.5059 38.796 14.5025 39.027C14.4888 39.8302 14.4957 40.6335 14.4957 41.4367ZM11.7185 43.5982C12.9282 43.5982 13.8073 42.7018 13.821 41.478C13.8312 40.1784 12.9112 39.2752 11.7833 39.2545C10.6043 39.2338 9.69104 40.2232 9.674 41.4298C9.65356 42.5674 10.6349 43.6395 11.7185 43.5982Z" fill="#2E51DB"/>
<path d="M37.8407 40.8821C37.8407 41.8439 37.8373 42.8091 37.8441 43.7709C37.8441 43.9847 37.8339 44.1467 37.5477 44.157C37.2717 44.1674 37.1047 44.095 37.0979 43.802C37.0877 43.3779 37.0945 42.9539 37.0945 42.5299C37.0945 40.9821 37.0877 39.4342 37.1013 37.8863C37.1047 37.614 37.0229 37.5209 36.7537 37.5382C36.4266 37.5589 36.0961 37.5313 35.7689 37.5451C35.4929 37.5554 35.527 37.3727 35.5304 37.2003C35.5338 37.0349 35.4793 36.8487 35.7621 36.8487C36.9173 36.8556 38.0758 36.8556 39.231 36.8487C39.4695 36.8453 39.4832 36.9728 39.4763 37.1521C39.4695 37.3348 39.507 37.5416 39.2242 37.5382C38.8937 37.5382 38.5665 37.5589 38.2394 37.5347C37.9157 37.5106 37.8339 37.645 37.8373 37.9553C37.8509 38.9309 37.8407 39.9065 37.8407 40.8821Z" fill="#2E51DB"/>
<path d="M20.9359 42.6195C21.2153 41.9989 21.4538 41.475 21.689 40.9441C21.9922 40.2581 22.2921 39.5686 22.5954 38.8791C22.6601 38.7343 23.2564 38.624 23.3552 38.7378C23.4132 38.8033 23.362 38.8688 23.3348 38.9274C22.8475 39.8961 22.4591 40.9062 22.0059 41.8886C21.7094 42.5298 21.3959 43.1641 21.1472 43.8295C21.1097 43.9329 21.0756 44.0673 20.9325 44.0673C20.8064 44.0673 20.786 43.9363 20.7485 43.8467C20.1794 42.5781 19.6172 41.306 19.0515 40.0374C18.9152 39.7375 18.7551 39.4479 18.6324 39.1411C18.5813 39.017 18.4007 38.8067 18.6154 38.7412C18.8062 38.6826 19.1026 38.5792 19.2423 38.8826C19.5081 39.4514 19.7671 40.0236 20.0261 40.5959C20.3157 41.2371 20.6019 41.8817 20.9359 42.6195Z" fill="#2E51DB"/>
<path d="M40.7679 39.4061C41.0985 39.0269 41.4358 38.7407 41.8958 38.6166C42.0321 38.5787 42.1684 38.5477 42.2945 38.5856C42.4445 38.6304 42.6728 38.5994 42.7034 38.8097C42.7341 39.0131 42.3729 39.3027 42.165 39.2647C41.6948 39.1786 41.4052 39.4578 41.1871 39.7991C40.952 40.1679 40.8634 40.5851 40.8225 41.0332C40.7407 41.9812 40.7679 42.9292 40.7679 43.8773C40.7679 44.1668 40.6078 44.1462 40.4204 44.1496C40.2227 44.153 40.0762 44.1565 40.0762 43.8738C40.0864 42.2467 40.0899 40.6195 40.0762 38.9924C40.0728 38.6787 40.25 38.7201 40.4476 38.7063C40.6691 38.6925 40.7952 38.7476 40.7679 39.0062C40.7543 39.1372 40.7679 39.2716 40.7679 39.4061Z" fill="#2E51DB"/>
<path d="M16.4446 39.4412C16.6968 39.0861 16.9932 38.8207 17.3749 38.6587C17.5384 38.5897 17.702 38.5518 17.869 38.5794C18.053 38.607 18.2779 38.6242 18.2949 38.8793C18.3085 39.0965 18.0257 39.2964 17.7906 39.2688C17.3919 39.2206 16.9455 39.4584 16.7649 39.8618C16.5912 40.2444 16.4889 40.6478 16.4583 41.0787C16.3901 42.0164 16.4037 42.954 16.4071 43.8917C16.4071 44.1192 16.3049 44.164 16.1175 44.1503C15.9437 44.1365 15.729 44.1951 15.7256 43.9055C15.7222 43.6745 15.7256 43.447 15.7256 43.216C15.7256 41.8164 15.7325 40.4202 15.7188 39.0206C15.7154 38.7448 15.8279 38.7 16.063 38.7035C16.2845 38.7069 16.4412 38.7242 16.4106 39.0137C16.3935 39.1413 16.3697 39.2826 16.4446 39.4412Z" fill="#2E51DB"/>
<path d="M30.7628 40.3988C30.7628 39.2543 30.7696 38.1063 30.7559 36.9618C30.7525 36.6894 30.8582 36.6343 31.0967 36.6412C31.3148 36.6481 31.4511 36.655 31.4511 36.948C31.4409 39.2301 31.4409 41.5088 31.4511 43.7909C31.4511 44.0908 31.3318 44.1529 31.066 44.1598C30.7832 44.1667 30.7593 44.0357 30.7628 43.8047C30.7662 42.6671 30.7628 41.5329 30.7628 40.3988Z" fill="#2E51DB"/>
<path d="M8.4773 48.4454C8.65108 47.8559 8.81805 47.263 9.00206 46.6804C9.03613 46.5667 9.01909 46.3633 9.21673 46.3805C9.38029 46.3943 9.43481 46.5253 9.47911 46.6908C9.63927 47.294 9.73808 47.9146 9.99365 48.5489C10.1402 48.0007 10.2765 47.5009 10.4128 46.9976C10.4537 46.8424 10.5014 46.6908 10.5457 46.5391C10.5763 46.4322 10.6172 46.3357 10.7535 46.3908C10.8694 46.4357 10.8932 46.508 10.8558 46.6356C10.6445 47.3699 10.4434 48.1042 10.239 48.8419C10.1981 48.9936 10.147 49.1177 9.94935 49.1108C9.76194 49.1004 9.73468 48.966 9.7006 48.835C9.57111 48.3524 9.44844 47.8663 9.32237 47.3802C9.30192 47.3009 9.2951 47.2079 9.18947 47.2182C9.10088 47.2285 9.12473 47.3251 9.10769 47.3837C8.96798 47.8766 8.83168 48.3696 8.68516 48.8626C8.65108 48.9763 8.63745 49.1039 8.45685 49.1108C8.26944 49.1177 8.22514 49.0074 8.18425 48.8695C7.97298 48.1248 7.75831 47.3802 7.55727 46.6322C7.53682 46.5563 7.42096 46.4322 7.5743 46.3667C7.70038 46.315 7.79238 46.4046 7.85713 46.5012C7.91506 46.5873 7.9355 46.6839 7.96276 46.7873C8.09906 47.3457 8.2524 47.8973 8.39552 48.4523C8.42618 48.4523 8.45004 48.4489 8.4773 48.4454Z" fill="#2E51DB"/>
<path d="M54.1082 47.2771C54.1082 46.9737 54.1082 46.7117 54.1082 46.4497C54.1082 46.3256 54.1184 46.2188 54.282 46.2188C54.4217 46.2222 54.449 46.3049 54.449 46.4221C54.449 47.2461 54.449 48.0734 54.4455 48.8973C54.4455 49.1524 54.2786 49.18 54.1423 49.0387C54.0469 48.9421 54.0196 48.9663 53.9378 49.0145C53.212 49.411 52.7213 48.9318 52.6873 48.2079C52.6498 47.5149 53.2325 46.7807 54.1082 47.2771ZM54.1048 48.1217C54.1048 48.0424 54.1082 47.9631 54.1048 47.8804C54.0843 47.477 53.6993 47.2598 53.3551 47.4563C52.9633 47.677 52.8951 48.4561 53.2393 48.7456C53.304 48.8008 53.3722 48.8215 53.454 48.8353C53.8049 48.887 54.1866 48.6698 54.1048 48.1217Z" fill="#2E51DB"/>
<path d="M35.0492 47.3348C35.2673 47.2934 35.373 47.121 35.5706 47.1038C36.2078 47.0555 36.6303 47.645 36.46 48.369C36.3066 49.0274 35.7887 49.2825 35.1787 48.986C35.0969 48.9481 35.0901 48.9688 35.0288 49.0205C34.8618 49.1619 34.7119 49.1515 34.7085 48.8792C34.7051 48.069 34.7085 47.2555 34.7051 46.4454C34.7051 46.3247 34.7085 46.2109 34.8755 46.2109C35.039 46.2109 35.0458 46.3247 35.0458 46.4454C35.0458 46.7349 35.0492 47.0211 35.0492 47.3348ZM35.0492 48.1345C35.0492 48.6241 35.2128 48.8275 35.5808 48.8309C35.942 48.8344 36.126 48.6206 36.1396 48.1794C36.1431 48.0759 36.1499 47.9725 36.1294 47.8725C36.0851 47.6347 35.9727 47.4485 35.7137 47.3899C35.4479 47.3279 35.2912 47.4864 35.1481 47.6761C35.039 47.8208 35.039 47.9967 35.0492 48.1345Z" fill="#2E51DB"/>
<path d="M46.7852 47.6111C46.6387 48.0834 46.5262 48.4626 46.4001 48.8383C46.3626 48.9452 46.3729 49.0969 46.1889 49.1072C45.9844 49.1176 45.9878 48.9486 45.9503 48.8314C45.8072 48.3764 45.6709 47.9144 45.5448 47.4525C45.5244 47.3698 45.3813 47.2319 45.5925 47.1836C45.7459 47.1491 45.8243 47.2491 45.8583 47.3836C45.9265 47.649 45.9878 47.9144 46.056 48.1799C46.0866 48.2971 46.1343 48.4109 46.2093 48.6349C46.3456 48.173 46.4478 47.8076 46.5637 47.4491C46.5978 47.3422 46.5944 47.1871 46.775 47.1836C46.9624 47.1802 46.993 47.3181 47.0305 47.4491C47.1293 47.8076 47.2282 48.1661 47.3883 48.5281C47.4939 48.1661 47.5928 47.8007 47.7018 47.4387C47.7393 47.3112 47.7734 47.1319 47.9608 47.2043C48.1277 47.2732 48.0187 47.418 47.9846 47.5318C47.8517 47.9696 47.712 48.404 47.5825 48.8418C47.5451 48.9659 47.5451 49.0969 47.3747 49.1038C47.1839 49.1141 47.1668 48.959 47.1293 48.8314C47.0203 48.4557 46.9181 48.0834 46.7852 47.6111Z" fill="#2E51DB"/>
<path d="M36.8189 48.1451C36.7371 47.6349 37.1528 47.1006 37.6844 47.1006C38.2092 47.0972 38.4852 47.5625 38.4511 48.0555C38.4409 48.2003 38.3421 48.2072 38.2364 48.2072C37.9638 48.2072 37.6946 48.2141 37.422 48.2072C37.1324 48.1969 37.1188 48.3313 37.2278 48.5485C37.3743 48.8312 37.6708 48.9139 38.0558 48.7932C38.1342 48.7691 38.2433 48.6278 38.3046 48.7898C38.3625 48.938 38.2398 49.0173 38.1206 49.0656C37.388 49.3724 36.7337 48.9036 36.8189 48.1451ZM37.6265 47.9521C37.7832 47.8659 38.0626 48.0762 38.0933 47.7832C38.1206 47.5419 37.9263 47.4005 37.681 47.3867C37.4493 47.3729 37.1426 47.6143 37.1801 47.797C37.238 48.0796 37.4834 47.8625 37.6265 47.9521Z" fill="#2E51DB"/>
<path d="M42.2161 48.8282C42.3592 48.8351 42.4819 48.8282 42.5977 48.7661C42.6591 48.7351 42.7443 48.6524 42.792 48.7765C42.8294 48.873 42.792 48.9626 42.7034 49.0109C42.1786 49.3039 41.4937 49.1763 41.3267 48.4938C41.1666 47.8422 41.4528 47.2527 41.9605 47.1252C42.5125 46.9907 43.01 47.4492 42.9419 48.0215C42.9248 48.1766 42.8465 48.2076 42.717 48.2042C42.458 48.2007 42.1956 48.2007 41.9367 48.2076C41.8413 48.2111 41.7186 48.1628 41.6675 48.2869C41.6129 48.4145 41.6641 48.5248 41.7561 48.6282C41.889 48.7833 42.0355 48.8661 42.2161 48.8282ZM42.1036 47.9491C42.257 47.8526 42.5568 48.0973 42.5841 47.7664C42.6045 47.5251 42.4035 47.3906 42.1582 47.3837C41.9264 47.3803 41.6198 47.6319 41.6709 47.8112C41.739 48.0525 41.9605 47.8801 42.1036 47.9491Z" fill="#2E51DB"/>
<path d="M18.1594 48.8309C18.2719 48.8344 18.3843 48.8309 18.4899 48.7758C18.5513 48.7448 18.6365 48.662 18.6944 48.762C18.7421 48.8482 18.708 48.9344 18.6297 49.0033C18.2276 49.3618 17.3178 49.0861 17.2428 48.5448C17.1849 48.1208 17.0963 47.652 17.5222 47.3107C17.7982 47.0935 18.0947 47.0349 18.4048 47.1659C18.7353 47.3072 18.8205 47.6209 18.8477 47.9553C18.8614 48.1242 18.7762 48.2104 18.6058 48.207C18.3673 48.207 18.1322 48.2001 17.8936 48.2104C17.7812 48.2139 17.6278 48.1449 17.5699 48.3104C17.5188 48.4586 17.6108 48.5724 17.6926 48.6827C17.8153 48.8447 17.989 48.8344 18.1594 48.8309ZM18.0197 47.9519C18.173 47.8485 18.4797 48.107 18.5002 47.7519C18.5172 47.4796 18.2821 47.3865 18.0572 47.3934C17.8153 47.4003 17.5733 47.5348 17.5801 47.7864C17.587 48.076 17.8732 47.8657 18.0197 47.9519Z" fill="#2E51DB"/>
<path d="M23.2056 48.1764C23.1068 47.4697 23.7372 46.9112 24.3676 47.1698C24.647 47.2835 24.906 47.7834 24.8378 48.0764C24.8037 48.2212 24.7049 48.2109 24.6061 48.2109C24.3335 48.2143 24.0643 48.2109 23.7917 48.2143C23.7065 48.2143 23.5975 48.1867 23.5634 48.3039C23.5327 48.4074 23.5532 48.5004 23.6179 48.5935C23.8394 48.8969 24.1325 48.8659 24.4426 48.7935C24.5243 48.7728 24.63 48.6314 24.6913 48.7935C24.7492 48.9451 24.6266 49.0175 24.5039 49.0693C23.8599 49.3485 23.0659 48.8969 23.2056 48.1764ZM24.0132 47.9661C24.1427 47.8213 24.4562 48.1109 24.4834 47.7662C24.5005 47.5214 24.296 47.3939 24.0473 47.3835C23.8394 47.3766 23.5396 47.6007 23.56 47.7696C23.5975 48.0833 23.853 47.8627 24.0132 47.9661Z" fill="#2E51DB"/>
<path d="M12.5086 48.7249C12.4643 49.0559 12.2769 49.1972 11.8953 49.1662C11.2819 49.1145 10.9787 48.718 11.0264 47.9872C11.0638 47.4218 11.4864 47.053 12.0248 47.1116C12.4371 47.1564 12.7778 47.6942 12.6552 48.0872C12.6109 48.2285 12.5086 48.2078 12.4098 48.2078C12.1372 48.2113 11.868 48.2147 11.5954 48.2078C11.3535 48.2044 11.3296 48.3181 11.4148 48.5112C11.5409 48.7973 11.8101 48.9042 12.2258 48.8214C12.311 48.8042 12.3928 48.7663 12.5086 48.7249ZM11.8544 47.9355C11.9123 47.9355 11.9702 47.9458 12.0214 47.932C12.1338 47.9113 12.3178 48.0079 12.3451 47.8527C12.3757 47.67 12.2599 47.4977 12.0827 47.4149C11.9225 47.3391 11.7556 47.3805 11.6022 47.4735C11.4591 47.5597 11.3842 47.708 11.4046 47.8458C11.4319 48.0113 11.609 47.9079 11.7181 47.9355C11.7624 47.9424 11.8067 47.9355 11.8544 47.9355Z" fill="#2E51DB"/>
<path d="M15.514 48.3452C15.514 48.5417 15.514 48.7347 15.514 48.9312C15.514 49.0691 15.3879 49.1587 15.3266 49.0932C15.1017 48.8485 14.9211 49.1036 14.7269 49.1208C14.3589 49.1484 14.0522 48.9829 14.0181 48.6692C13.9772 48.3038 14.2226 47.9797 14.577 47.9384C14.6996 47.9246 14.8257 47.9384 14.945 47.8867C15.0302 47.8487 15.1665 47.8867 15.1665 47.7315C15.1665 47.5936 15.1051 47.4868 14.979 47.4316C14.7984 47.3489 14.6281 47.3868 14.4577 47.4695C14.3895 47.504 14.2941 47.6178 14.2328 47.4937C14.1851 47.3937 14.2123 47.273 14.335 47.1972C14.8666 46.8663 15.4936 47.2006 15.514 47.8315C15.5208 48.0004 15.5174 48.1728 15.514 48.3452ZM14.6724 48.8312C14.9995 48.8347 15.1733 48.6554 15.1801 48.3589C15.1835 48.1659 15.0847 48.1383 14.9279 48.1383C14.5735 48.1418 14.3759 48.2797 14.3589 48.5313C14.3452 48.783 14.4781 48.8519 14.6724 48.8312Z" fill="#2E51DB"/>
<path d="M26.6091 48.2828C26.6091 48.5 26.6091 48.7172 26.6091 48.9343C26.6091 49.0722 26.4796 49.1584 26.4217 49.0791C26.2717 48.8723 26.1865 49.0136 26.0332 49.0619C25.7981 49.1377 25.5221 49.1929 25.3006 48.9792C25.12 48.8033 25.0586 48.5896 25.1541 48.3517C25.2631 48.0897 25.4573 47.9312 25.7572 47.9312C25.8458 47.9312 25.9344 47.907 26.023 47.8898C26.1559 47.8622 26.3058 47.8553 26.2717 47.6485C26.2376 47.4589 26.1218 47.3658 25.9378 47.3865C25.8049 47.4003 25.6754 47.4416 25.5459 47.4796C25.471 47.5002 25.3892 47.5485 25.3415 47.4485C25.304 47.3692 25.3278 47.2934 25.4096 47.2417C25.6686 47.0762 25.948 47.0486 26.2206 47.159C26.4728 47.2624 26.65 47.4485 26.6193 47.7657C26.5954 47.9381 26.6091 48.1104 26.6091 48.2828ZM25.8219 48.8309C26.0979 48.8344 26.3365 48.5862 26.3331 48.3069C26.3296 48.1035 26.1831 48.1449 26.0673 48.1449C25.6788 48.138 25.4471 48.2828 25.4573 48.531C25.4641 48.762 25.6141 48.8378 25.8219 48.8309Z" fill="#2E51DB"/>
<path d="M49.2521 47.1074C49.8007 47.1109 50.1585 47.4935 50.1585 48.0761C50.1585 48.7311 49.7394 49.2103 49.1567 49.1517C48.666 49.1034 48.2775 48.869 48.315 48.0658C48.3423 47.4487 48.6558 47.1074 49.2521 47.1074ZM49.8177 48.1623C49.8211 47.6176 49.6474 47.3832 49.2384 47.3832C48.85 47.3832 48.5944 47.6624 48.591 48.0968C48.5876 48.5656 48.8432 48.8656 49.2521 48.8759C49.5758 48.8828 49.8143 48.5794 49.8177 48.1623Z" fill="#2E51DB"/>
<path d="M29.3352 48.1276C29.3352 47.876 29.3386 47.6243 29.3352 47.3727C29.3317 47.19 29.5055 47.1141 29.5669 47.1934C29.7372 47.4313 29.8361 47.2382 29.9587 47.1727C30.4017 46.9452 30.8242 47.1831 30.9094 47.676C30.9776 48.0621 30.9639 48.4482 30.9674 48.8343C30.9708 48.9722 30.9401 49.0963 30.7697 49.0929C30.5925 49.0894 30.6334 48.9446 30.6266 48.8378C30.6028 48.4758 30.6709 48.1104 30.5653 47.7484C30.5039 47.5381 30.4051 47.3865 30.1802 47.3865C29.9621 47.3899 29.7986 47.4968 29.727 47.7277C29.6214 48.0759 29.6998 48.431 29.6691 48.7826C29.6589 48.9033 29.7372 49.086 29.5158 49.0963C29.267 49.1067 29.3386 48.9102 29.3352 48.7757C29.3283 48.562 29.3317 48.3448 29.3352 48.1276Z" fill="#2E51DB"/>
<path d="M38.9953 48.166C38.9953 48.0039 38.9919 47.8454 38.9953 47.6833C38.9987 47.5592 38.9817 47.4524 38.8215 47.4489C38.7329 47.4489 38.6648 47.4213 38.6613 47.3145C38.6579 47.2248 38.6954 47.1387 38.7772 47.1283C38.9782 47.1076 39.0089 46.987 38.9953 46.818C38.9851 46.6939 39.0362 46.625 39.1691 46.625C39.3122 46.6284 39.3394 46.7181 39.3292 46.8318C39.3088 47.0421 39.394 47.1249 39.5984 47.1111C39.6972 47.1042 39.7824 47.149 39.7927 47.2628C39.8029 47.3938 39.7109 47.4558 39.5984 47.4455C39.3531 47.4248 39.3156 47.5558 39.3292 47.7592C39.3394 47.9764 39.3394 48.1935 39.3292 48.4107C39.319 48.6486 39.3326 48.8589 39.6564 48.8278C39.7143 48.8209 39.7722 48.8382 39.7892 48.9071C39.8097 48.9864 39.762 49.0347 39.7075 49.0795C39.4587 49.276 39.0498 49.0692 39.0021 48.7106C38.9782 48.5314 38.9987 48.3452 38.9987 48.1625C38.9987 48.166 38.9987 48.166 38.9953 48.166Z" fill="#2E51DB"/>
<path d="M40.768 49.1073C40.4443 49.1073 40.2978 48.9729 40.291 48.6592C40.2842 48.3972 40.2944 48.1352 40.2876 47.8698C40.2842 47.6767 40.3625 47.4561 40.032 47.425C39.9059 47.4113 39.9127 47.2217 40.0627 47.1906C40.2808 47.1493 40.2944 47.0114 40.291 46.839C40.2876 46.7287 40.3012 46.6253 40.4477 46.6322C40.5704 46.6391 40.6283 46.7218 40.6249 46.839C40.6215 47.032 40.6522 47.1837 40.8941 47.1768C40.9895 47.1734 41.0372 47.2285 41.0304 47.3285C41.0236 47.4147 40.9623 47.4492 40.8907 47.4423C40.642 47.4181 40.6215 47.5698 40.6283 47.7663C40.6385 47.9835 40.6351 48.2007 40.6283 48.4179C40.6249 48.6351 40.6147 48.8453 40.9248 48.835C41.0066 48.8316 41.044 48.9005 41.0304 48.9798C40.9997 49.1556 40.8566 49.0867 40.768 49.1073Z" fill="#2E51DB"/>
<path d="M27.2907 48.1699C27.2907 48.0217 27.2873 47.8734 27.2907 47.7252C27.2941 47.577 27.2907 47.446 27.0897 47.4494C27.0147 47.4494 26.9636 47.408 26.9602 47.3253C26.9568 47.246 26.9942 47.184 27.0726 47.184C27.2907 47.1908 27.2975 47.0495 27.2941 46.8909C27.2941 46.7841 27.26 46.6427 27.4372 46.6358C27.5837 46.6324 27.6383 46.7324 27.628 46.8634C27.6178 47.0461 27.6928 47.146 27.8666 47.1736C27.9654 47.1874 28.0472 47.215 28.0301 47.3391C28.0165 47.446 27.9313 47.4563 27.8529 47.4528C27.6315 47.4391 27.628 47.5804 27.6315 47.7424C27.6349 47.9596 27.6349 48.1768 27.6315 48.394C27.628 48.6146 27.594 48.849 27.9313 48.8421C28.0131 48.8387 28.0404 48.9145 28.0335 48.9904C28.0267 49.0765 27.962 49.0903 27.8904 49.1076C27.5326 49.1834 27.3009 48.9972 27.2941 48.618C27.2873 48.4698 27.2907 48.3181 27.2907 48.1699Z" fill="#2E51DB"/>
<path d="M20.2128 48.1767C20.1311 47.5631 20.5706 47.0253 21.3305 47.1081C21.4941 47.1253 21.6202 47.2115 21.6031 47.3494C21.5759 47.5459 21.4191 47.4252 21.3169 47.4011C21.0238 47.3356 20.8058 47.4631 20.6388 47.6872C20.4411 47.9526 20.4854 48.2595 20.5945 48.5284C20.6899 48.7628 20.908 48.88 21.1806 48.8352C21.1908 48.8317 21.2078 48.8317 21.2147 48.8352C21.3237 48.9145 21.5418 48.649 21.5622 48.9076C21.5827 49.1592 21.3135 49.1627 21.1601 49.1627C20.6797 49.1627 20.1379 48.8696 20.2128 48.1767Z" fill="#2E51DB"/>
<path d="M51.9278 47.642C51.9278 47.2422 51.9278 46.8388 51.9278 46.4389C51.9278 46.3355 51.921 46.2183 52.0743 46.2218C52.2004 46.2218 52.2617 46.301 52.2651 46.4182C52.2685 47.2525 52.2685 48.0902 52.2685 48.9244C52.2685 49.0348 52.2276 49.0968 52.1118 49.1003C51.9789 49.1037 51.9312 49.0348 51.9312 48.9107C51.9312 48.4901 51.9278 48.0661 51.9278 47.642Z" fill="#2E51DB"/>
<path d="M22.0503 48.1038C22.0503 47.8625 22.0503 47.6247 22.0503 47.3833C22.0503 47.2903 22.0503 47.1937 22.1423 47.142C22.2412 47.0834 22.3195 47.1282 22.3741 47.2144C22.449 47.3351 22.5206 47.2903 22.5887 47.2144C22.6739 47.1248 22.7761 47.0938 22.8954 47.111C22.9976 47.1282 23.0556 47.1903 23.0624 47.2937C23.0692 47.4178 22.9908 47.4351 22.8886 47.4488C22.4899 47.5074 22.4013 47.6074 22.3911 48.0176C22.3843 48.2796 22.3911 48.5416 22.3877 48.8071C22.3843 48.9346 22.432 49.1036 22.2105 49.0967C22.0129 49.0898 22.0538 48.9381 22.0503 48.8209C22.0469 48.5865 22.0503 48.3451 22.0503 48.1038Z" fill="#2E51DB"/>
<path d="M43.3536 48.1423C43.3536 47.8906 43.357 47.639 43.3536 47.3873C43.3502 47.1598 43.5308 47.1012 43.633 47.215C43.7659 47.3667 43.8068 47.2943 43.909 47.2184C43.9771 47.1667 44.0691 47.1322 44.1543 47.115C44.2566 47.0978 44.3622 47.1047 44.3724 47.2563C44.3792 47.3839 44.3315 47.4321 44.202 47.4563C43.8374 47.5218 43.7011 47.6873 43.6943 48.0492C43.6909 48.325 43.6909 48.5973 43.6943 48.8731C43.6943 48.9972 43.6841 49.1041 43.5205 49.1006C43.3536 49.0972 43.357 48.98 43.357 48.8628C43.3536 48.6249 43.3536 48.3836 43.3536 48.1423Z" fill="#2E51DB"/>
<path d="M16.0625 48.1142C16.0625 47.8625 16.0625 47.6108 16.0625 47.3557C16.0625 47.2592 16.0761 47.1661 16.1818 47.1317C16.2874 47.0937 16.3624 47.1455 16.3896 47.2489C16.4305 47.3971 16.4884 47.3178 16.5532 47.2696C16.6077 47.2282 16.6622 47.1903 16.7236 47.1592C16.8292 47.1041 16.9416 47.0765 17.0439 47.1558C17.1018 47.2041 17.0916 47.2833 17.0745 47.3488C17.0371 47.4902 16.9144 47.4488 16.819 47.4523C16.5055 47.4626 16.4203 47.6763 16.4101 47.9383C16.3964 48.2486 16.4067 48.5589 16.4067 48.8657C16.4067 48.9863 16.4067 49.1001 16.2397 49.1035C16.0727 49.107 16.0659 48.9932 16.0659 48.8726C16.0625 48.6175 16.0625 48.3658 16.0625 48.1142Z" fill="#2E51DB"/>
<path d="M50.8165 47.1838C51.0039 47.3079 51.1845 47.1769 51.3787 47.1252C51.4707 47.1011 51.5661 47.108 51.5798 47.239C51.5934 47.3493 51.5798 47.4527 51.4332 47.4527C51.0243 47.4527 50.9562 47.7147 50.9698 48.0525C50.98 48.3145 50.9732 48.58 50.9698 48.8454C50.9698 48.9867 50.9357 49.1074 50.7688 49.1005C50.5916 49.0936 50.6359 48.9454 50.6324 48.842C50.629 48.3731 50.629 47.9008 50.6324 47.432C50.6359 47.3113 50.6188 47.1803 50.8165 47.1838Z" fill="#2E51DB"/>
<path d="M28.787 48.1731C28.787 48.4006 28.787 48.6316 28.787 48.8591C28.787 48.9729 28.7973 49.097 28.6269 49.1004C28.4633 49.1073 28.4463 49.0039 28.4463 48.8764C28.4463 48.3868 28.4463 47.8939 28.4463 47.4044C28.4463 47.2803 28.4599 47.1734 28.6235 47.1768C28.7905 47.1803 28.787 47.3009 28.787 47.4182C28.787 47.6733 28.787 47.9215 28.787 48.1731Z" fill="#2E51DB"/>
<path d="M28.7871 46.4731C28.7768 46.6041 28.7325 46.6903 28.6031 46.6799C28.494 46.673 28.4531 46.5903 28.4531 46.4869C28.4531 46.3697 28.5042 46.2835 28.6337 46.2938C28.7428 46.3042 28.7768 46.3903 28.7871 46.4731Z" fill="#2E51DB"/>
<path d="M34.7051 0.46582V0.470026H34.7093L34.7051 0.46582Z" fill="#2E51DB"/>
<path d="M34.7056 0.472656V12.9899L37.4622 7.32939L39.7794 7.35007V22.3425H37.4418V17.5059V14.5929V12.4383V12.0591L34.7021 17.5507V29.2096C41.0333 27.5652 45.7119 21.7564 45.7119 14.8377C45.7085 7.92233 41.0333 2.11703 34.7056 0.472656Z" fill="#2E51DB"/>
<path d="M29.2334 0.117209V17.2745L31.036 21.0563L32.7023 17.2745V0.0965251C32.1571 0.0344732 31.605 0 31.0462 0C30.4329 0 29.8263 0.0413679 29.2334 0.117209Z" fill="#2E51DB"/>
<path d="M24.4728 22.3386H22.0977V7.29444H24.483L27.1681 12.986V0.527344C20.9528 2.24756 16.3799 7.9977 16.3799 14.8372C16.3799 21.6939 20.98 27.4613 27.2261 29.1608V17.6433L24.4728 12.1345V22.3386Z" fill="#2E51DB"/>
</g>
<defs>
<clipPath id="clip0_9_2327">
<rect width="62" height="50" fill="white"/>
</clipPath>
</defs>
</svg>
