<svg width="36" height="36" viewBox="0 0 36 36" fill="none" xmlns="http://www.w3.org/2000/svg">
<path d="M22.84 0.564453V15.5271L26.1353 8.76073L28.9051 8.78545V26.7068H26.1108V20.9253V17.4433V14.8678V14.4145L22.8359 20.9789V34.9155C30.404 32.9498 35.9965 26.0063 35.9965 17.7358C35.9925 9.46951 30.404 2.53008 22.84 0.564453Z" fill="#2E51DB"/>
<path d="M16.3008 0.140107V20.6493L18.4555 25.1699L20.4473 20.6493V0.115382C19.7956 0.041208 19.1358 0 18.4677 0C17.7346 0 17.0095 0.0494496 16.3008 0.140107Z" fill="#2E51DB"/>
<path d="M10.6075 27.2676H7.76848V9.28444H10.6197L13.8295 16.0879V1.19531C6.39987 3.25159 0.933594 10.1251 0.933594 18.3008C0.933594 26.497 6.43246 33.3911 13.8987 35.4227V21.6551L10.6075 15.0701V27.2676Z" fill="#2E51DB"/>
</svg>
