<svg width="23" height="15" viewBox="0 0 23 15" fill="none" xmlns="http://www.w3.org/2000/svg">
<path d="M20.028 11.2649C19.9661 9.0149 19.0291 6.96709 17.5329 5.47063H17.5328C15.9391 3.87731 13.7834 2.97168 11.5001 2.97168C9.28662 2.97168 7.10738 3.83046 5.46721 5.47063C3.87003 7.06799 3.0309 9.15528 2.97211 11.2654C2.96896 11.3787 2.87508 11.4686 2.76172 11.4686H20.2383C20.1247 11.4684 20.0312 11.3784 20.028 11.2649Z" fill="#E4EAF8"/>
<path d="M7.04088 5.56679C8.48821 4.06367 10.3555 3.19295 12.2953 3.00906C12.0325 2.98449 11.7672 2.97168 11.5001 2.97168C9.28662 2.97168 7.10739 3.83046 5.46721 5.47046C3.87003 7.06799 3.0309 9.1551 2.97211 11.2652C2.96896 11.3786 2.87508 11.4684 2.76172 11.4684H4.55C4.63493 9.31672 5.47195 7.19644 7.04088 5.56679Z" fill="#D8DCE5"/>
<path d="M19.6337 3.36932C17.4711 1.20763 14.5598 0 11.5 0V3.12821C13.7414 3.12821 15.8574 4.01717 17.4218 5.58119L19.6337 3.36932Z" fill="#FECA57"/>
<path d="M3.36621 3.36914L5.57826 5.58119C7.15123 4.00822 9.27221 3.12821 11.5 3.12821V0C8.60259 0 5.78515 1.03671 3.36621 3.36914Z" fill="#15BA8B"/>
<path d="M3.36621 3.36914L5.57826 5.58119C7.15123 4.00822 9.27221 3.12821 11.5 3.12821V0C8.60259 0 5.78515 1.03671 3.36621 3.36914Z" fill="#15BA8B"/>
<path d="M4.7572e-05 11.2563C-0.00240909 11.3726 0.0905933 11.4688 0.206934 11.4688H2.92243C3.03368 11.4688 3.1258 11.3807 3.12896 11.2694C3.18652 9.19793 4.01038 7.14925 5.57826 5.58119L3.36621 3.36914C1.28681 5.44853 0.0637454 8.25317 4.7572e-05 11.2563Z" fill="#54A0FF"/>
<path d="M4.79108 3.28188C6.75062 1.39235 8.96916 0.344757 11.2805 0.00292969C8.46045 0.0541687 5.72408 1.09615 3.36621 3.36961L4.06969 4.0731C4.29729 3.79953 4.53786 3.53526 4.79108 3.28188Z" fill="#11AA7B"/>
<path d="M1.59776 11.4688C1.48001 11.4688 1.38596 11.3716 1.38859 11.254C1.44509 8.58411 2.40863 6.06989 4.06969 4.07262L3.36621 3.36914C1.28681 5.44853 0.0637454 8.25317 4.75721e-05 11.2563C-0.00240909 11.3726 0.0905933 11.4688 0.206934 11.4688H2.92243H1.59776Z" fill="#338DEF"/>
<path d="M19.6339 3.36914L17.4219 5.58119C18.8908 7.05028 19.8105 9.06036 19.8712 11.2691C19.8743 11.3805 19.9663 11.4688 20.0777 11.4688H22.7932C22.9095 11.4688 23.0025 11.3728 23.0001 11.2563C22.9374 8.32704 21.7625 5.49696 19.6339 3.36914Z" fill="#FF6B6B"/>
<path d="M14.8805 11.8706L16.5605 6.43473C16.63 6.20959 16.419 5.99867 16.1941 6.06816L10.758 7.74817C8.38662 8.48113 7.64559 11.473 9.4007 13.2279C11.1558 14.983 14.1475 14.242 14.8805 11.8706Z" fill="#FF6B6B"/>
<path d="M10.7891 13.2279C9.03395 11.473 9.77516 8.48112 12.1465 7.74816L16.5714 6.38067C16.5952 6.17747 16.401 6.00428 16.1941 6.06815L10.758 7.74816C8.38662 8.48112 7.64559 11.473 9.4007 13.2279C10.2488 14.076 11.3855 14.3412 12.4166 14.1213C11.8298 13.9949 11.2641 13.7031 10.7891 13.2279Z" fill="#EE5253"/>
<path d="M12.6896 9.93969C12.1374 9.38729 11.242 9.38729 10.6896 9.93969C10.1373 10.4919 10.1373 11.3874 10.6896 11.9398C11.242 12.492 12.1374 12.492 12.6896 11.9398C13.242 11.3874 13.242 10.4919 12.6896 9.93969Z" fill="#EE5253"/>
<path d="M12.3968 9.71457C11.8559 9.40187 11.1525 9.4768 10.6896 9.93953C10.1373 10.4918 10.1373 11.3874 10.6896 11.9396C11.1523 12.4023 11.8559 12.4771 12.3968 12.1646C11.4511 11.6178 11.4588 10.257 12.3968 9.71457Z" fill="#D83941"/>
</svg>
