<svg width="36" height="35" viewBox="0 0 36 35" fill="none" xmlns="http://www.w3.org/2000/svg">
<path d="M2.51246 12.9849C-1.37478 6.58978 6.28821 -0.555704 12.4049 3.77698C15.6002 6.04032 19.8667 6.08227 23.1051 3.88013L23.9478 3.30713C29.9834 -0.797081 37.2857 6.37025 33.2947 12.4813C31.3014 15.5336 31.3155 19.488 33.3051 22.5346C37.4616 28.8991 29.9738 36.325 23.7658 32.2277L22.746 31.5546C19.7081 29.5497 15.7579 29.587 12.7586 31.6491L11.8929 32.2442C6.25149 36.1227 -0.611238 29.3905 3.15815 23.6757C5.01781 20.8562 5.08498 17.2171 3.33062 14.3309L2.51246 12.9849Z" stroke="#899EED" stroke-opacity="0.36" stroke-width="2.5"/>
</svg>
