<svg width="22" height="33" viewBox="0 0 22 33" fill="none" xmlns="http://www.w3.org/2000/svg">
<g clip-path="url(#clip0_1_3188)">
<path d="M0.0269979 15.6452C0.112718 14.1237 -0.161586 11.7871 0.211295 9.45502C1.08992 4.03921 5.65021 0 10.952 0C16.258 0 20.9255 4.00751 21.6584 9.45954C22.2498 13.8384 21.9155 18.267 21.8127 22.6685C21.7912 23.6738 21.4912 24.6655 21.1312 25.6209C19.2325 30.688 14.3079 33.7084 9.30187 32.8571C4.14155 31.9831 0.288443 27.5001 0.0398559 21.9983C-0.0415779 20.1553 0.0269979 18.3032 0.0269979 15.6452ZM1.59567 16.5146C1.5871 16.5146 1.57853 16.5146 1.56995 16.5146C1.56995 18.2127 1.52281 19.9108 1.57853 21.6089C1.74996 26.839 5.56449 31.0503 10.3177 31.3084C15.3751 31.5801 19.614 28.0571 20.1883 22.7183C20.6297 18.6021 20.6255 14.4135 20.1926 10.2927C19.644 5.03543 15.508 1.4898 10.5748 1.63923C5.87308 1.78414 1.99855 5.71467 1.62139 10.8588C1.47995 12.7335 1.59567 14.6308 1.59567 16.5146Z" fill="#D6DAEB"/>
<path d="M10.1713 9.18259C10.1713 8.05059 10.1841 6.92312 10.167 5.79112C10.1584 5.19796 10.317 4.89005 10.9513 4.89458C11.5685 4.89911 11.7571 5.17532 11.7528 5.78207C11.74 8.00531 11.7485 10.2286 11.7571 12.4473C11.7571 12.6963 11.6628 13.0223 11.9285 13.1627C12.22 13.3121 12.3614 12.9861 12.5286 12.814C13.2186 12.1031 13.913 11.4013 14.5687 10.6542C15.0273 10.138 15.3273 10.3644 15.7217 10.7493C16.1631 11.1794 16.0474 11.4783 15.6788 11.8586C14.3544 13.2306 13.0429 14.6117 11.7357 16.0017C11.2042 16.5723 10.7156 16.5813 10.1799 16.0017C8.87692 14.6071 7.56969 13.217 6.24104 11.8541C5.78672 11.3877 5.87673 11.0753 6.28389 10.6542C6.67392 10.2557 6.95251 10.2059 7.34253 10.6406C8.02401 11.4104 8.74405 12.1439 9.45553 12.882C9.59697 13.0269 9.72555 13.2804 9.97842 13.1627C10.2184 13.0495 10.1584 12.7778 10.1627 12.565C10.1713 11.433 10.167 10.3055 10.167 9.17353C10.167 9.18259 10.167 9.18259 10.1713 9.18259Z" fill="#D6DAEB"/>
</g>
<defs>
<clipPath id="clip0_1_3188">
<rect width="22" height="33" fill="white"/>
</clipPath>
</defs>
</svg>
