<svg width="46" height="47" viewBox="0 0 46 47" fill="none" xmlns="http://www.w3.org/2000/svg">
<path d="M35.6068 7.69253C35.6068 6.23544 34.4507 5.0542 33.0247 5.0542H2.59188C1.16579 5.0542 0.00976562 6.23544 0.00976562 7.69253V32.736L0.842797 33.5733H35.6068V7.69253H35.6068Z" fill="#4A65CE"/>
<path d="M25.6453 44.8161H15.3574L17.6737 35.6982H23.329L25.6453 44.8161Z" fill="#BCD6F9"/>
<path d="M21.9809 42.6318H13.8432C11.9758 42.6318 10.4619 44.1786 10.4619 46.0866C10.4619 46.591 10.8621 46.9997 11.3556 46.9997H24.4863L24.841 46.6747V45.5543C24.8411 43.9402 23.5605 42.6318 21.9809 42.6318Z" fill="#EAF2FF"/>
<path d="M27.1588 42.6318H21.626C23.2057 42.6318 24.4862 43.9403 24.4862 45.5543V46.9997H29.6463C30.1399 46.9997 30.54 46.5909 30.54 46.0866C30.5401 44.1786 29.0262 42.6318 27.1588 42.6318Z" fill="#DBE8F9"/>
<path d="M34.9591 7.69253V33.5733H40.1594L40.9924 32.736V7.69253C40.9924 6.23544 39.8363 5.0542 38.4102 5.0542H32.377C33.803 5.05429 34.9591 6.23553 34.9591 7.69253Z" fill="#2E51DB"/>
<path d="M35.6068 35.0861V32.7358H0.00976562V35.0861C0.00976562 36.5432 1.16579 37.7244 2.59188 37.7244H33.0246C34.4507 37.7244 35.6068 36.5432 35.6068 35.0861Z" fill="#EAF2FF"/>
<path d="M34.9591 32.7363V35.0866C34.9591 36.5437 33.803 37.7248 32.377 37.7248H38.4102C39.8363 37.7248 40.9924 36.5436 40.9924 35.0866V32.7363H34.9591Z" fill="#DBE8F9"/>
<path d="M22.9749 18.1433C22.9732 17.6377 22.5706 17.2292 22.0758 17.231H22.0754C21.6914 17.2323 21.349 16.9837 21.225 16.6123C21.1125 16.2753 20.9774 15.9446 20.8199 15.6223C20.6487 15.2719 20.7167 14.8488 20.9868 14.5709C21.3354 14.2121 21.3335 13.6324 20.9824 13.2761L19.5385 11.8111C19.1873 11.4548 18.62 11.4568 18.2712 11.8156C18.0012 12.0935 17.5875 12.166 17.2434 11.9934C16.9269 11.8347 16.6022 11.699 16.2717 11.5864C15.9074 11.4623 15.6616 11.1142 15.6603 10.7218V10.7215C15.6586 10.2158 15.256 9.80734 14.7611 9.80909L12.7263 9.81634C12.2314 9.81808 11.8316 10.2294 11.8333 10.735V10.7354C11.8346 11.1277 11.5913 11.4776 11.2278 11.6044C10.898 11.7194 10.5742 11.8574 10.2589 12.0183C9.91594 12.1932 9.50185 12.1237 9.22981 11.8478C8.87861 11.4915 8.31133 11.4936 7.96256 11.8523L6.52874 13.3276C6.18006 13.6864 6.18204 14.266 6.53315 14.6224C6.8051 14.8983 6.87608 15.3209 6.70717 15.6725C6.55183 15.9959 6.41904 16.3277 6.30881 16.6654C6.18734 17.0376 5.84665 17.2887 5.46266 17.2901H5.4623C4.96744 17.2918 4.56763 17.7032 4.56934 18.2089L4.57644 20.288C4.57815 20.7936 4.98074 21.2021 5.47569 21.2003H5.47604C5.86004 21.199 6.20243 21.4476 6.32651 21.819C6.43908 22.1559 6.57412 22.4867 6.73161 22.809C6.90285 23.1594 6.83484 23.5825 6.56477 23.8604C6.21609 24.2193 6.21806 24.7989 6.56917 25.1552L8.01305 26.6202C8.36425 26.9765 8.93161 26.9745 9.2803 26.6157C9.55037 26.3378 9.96401 26.2653 10.3081 26.4379C10.6246 26.5966 10.9493 26.7323 11.2799 26.8449C11.6441 26.969 11.8899 27.3171 11.8912 27.7095V27.7098C11.893 28.2155 12.2955 28.624 12.7904 28.6222L14.8253 28.615C15.3201 28.6132 15.7199 28.2019 15.7182 27.6963V27.6959C15.7169 27.3035 15.9603 26.9537 16.3237 26.8269C16.6535 26.7119 16.9773 26.5739 17.2927 26.413C17.6356 26.2381 18.0497 26.3076 18.3217 26.5835C18.6729 26.9398 19.2403 26.9377 19.589 26.579L21.0228 25.1037C21.3715 24.745 21.3695 24.1653 21.0184 23.8089C20.7464 23.533 20.6755 23.1104 20.8444 22.7588C20.9997 22.4354 21.1325 22.1036 21.2427 21.7659C21.3642 21.3938 21.7049 21.1426 22.0889 21.1412H22.0892C22.5841 21.1395 22.9839 20.7281 22.9822 20.2224L22.9749 18.1433ZM16.6929 22.1756C15.093 23.8218 12.49 23.8311 10.8789 22.1963C9.26772 20.5616 9.25865 17.902 10.8586 16.2559C12.4585 14.6097 15.0616 14.6004 16.6726 16.2351C18.2837 17.8698 18.2928 20.5294 16.6929 22.1756Z" fill="#EAF2FF"/>
<path d="M40.357 14.3937V2.12491C40.357 0.951291 39.4259 0 38.2774 0H30.0611C28.9126 0 27.9814 0.951291 27.9814 2.12491V14.3938C27.9814 15.4652 28.7577 16.351 29.7669 16.497C29.9199 16.5191 30.0342 16.6519 30.0342 16.8098V21.4546C30.0342 21.7642 30.4167 21.8999 30.6044 21.6569L34.2338 16.9621C34.4504 16.682 34.7806 16.5186 35.13 16.5186H38.2774C39.4259 16.5186 40.357 15.5672 40.357 14.3937Z" fill="#FFBF24"/>
<path d="M43.9094 0H37.8604C39.0089 0 39.9401 0.951291 39.9401 2.12482V14.3937C39.9401 15.5672 39.0089 16.5186 37.8604 16.5186H43.9094C45.0579 16.5186 45.9891 15.5673 45.9891 14.3937V2.12491C45.989 0.951291 45.0578 0 43.9094 0V0Z" fill="#FBB303"/>
<path d="M30.0341 16.8097V21.4546C30.0341 21.7642 30.4165 21.8999 30.6043 21.6569L34.2337 16.9621C34.4504 16.682 34.7804 16.5186 35.1298 16.5186H29.8408C29.9549 16.5662 30.0341 16.6787 30.0341 16.8097Z" fill="#FBB303"/>
<path d="M37.5498 1.98584C37.5498 1.57163 37.214 1.23584 36.7998 1.23584C36.3856 1.23584 36.0498 1.57163 36.0498 1.98584H37.5498ZM36.2695 14.4317C36.5624 14.7246 37.0372 14.7246 37.3301 14.4317L42.1031 9.65869C42.396 9.3658 42.396 8.89093 42.1031 8.59803C41.8102 8.30514 41.3353 8.30514 41.0424 8.59803L36.7998 12.8407L32.5572 8.59803C32.2643 8.30514 31.7894 8.30514 31.4965 8.59803C31.2036 8.89093 31.2036 9.3658 31.4965 9.65869L36.2695 14.4317ZM36.0498 1.98584V13.9013H37.5498V1.98584H36.0498Z" fill="white"/>
</svg>
