<svg width="47" height="46" viewBox="0 0 47 46" fill="none" xmlns="http://www.w3.org/2000/svg">
<path d="M22.9206 15.9635L18.6822 12.05C18.157 11.565 17.3295 11.5887 16.834 12.1027L15.7256 13.2526C15.23 13.7666 15.2542 14.5764 15.7794 15.0614L20.0178 18.9749L22.9206 15.9635Z" fill="#2E51DB"/>
<path d="M38.168 15.9635L42.4064 12.05C42.9316 11.565 43.759 11.5887 44.2546 12.1027L45.363 13.2526C45.8585 13.7666 45.8344 14.5764 45.3092 15.0614L41.0708 18.9749L38.168 15.9635Z" fill="#2E51DB"/>
<path d="M10.2116 36.2769H28.1277V39.7285H10.2116C9.2377 39.7285 8.44824 38.9558 8.44824 38.0027C8.44824 37.0496 9.23779 36.2769 10.2116 36.2769Z" fill="#FBB303"/>
<path d="M6.3434 29.6968H28.1277V33.1484H6.3434C5.36953 33.1484 4.58008 32.3757 4.58008 31.4226C4.58008 30.4694 5.36953 29.6968 6.3434 29.6968Z" fill="#FBB303"/>
<path d="M1.76333 23.1167H28.1277V26.5683H1.76333C0.789453 26.5683 0 25.7957 0 24.8425C0 23.8894 0.789453 23.1167 1.76333 23.1167Z" fill="#FBB303"/>
<path d="M27.8047 5.58838H33.5018V11.8049H27.8047V5.58838Z" fill="#EAF2FF"/>
<path d="M31.16 5.58849V3.93384L30.653 3.38184H26.7732C25.528 3.38184 24.5186 4.36976 24.5186 5.58849C24.5186 6.80722 25.528 7.79514 26.7732 7.79514H28.9053C30.1505 7.79523 31.16 6.80722 31.16 5.58849Z" fill="#FF758A"/>
<path d="M34.5329 3.38184H30.6531V5.58849C30.6531 6.80722 29.6437 7.79514 28.3984 7.79514H34.5329C35.7781 7.79514 36.7875 6.80722 36.7875 5.58849C36.7875 4.36976 35.778 3.38184 34.5329 3.38184Z" fill="#FF5771"/>
<path d="M41.8157 26.6194C41.8157 18.8616 36.2828 12.3695 28.8687 10.7144C20.6798 11.5843 14.3057 18.3733 14.3057 26.6194C14.3057 34.8655 20.6797 41.6545 28.8687 42.5244C36.2828 40.8692 41.8157 34.3772 41.8157 26.6194Z" fill="#FF758A"/>
<path d="M37.84 37.1935C40.3193 34.346 41.8157 30.6538 41.8157 26.6193C41.8157 22.5848 40.3193 18.8925 37.84 16.045C35.7825 14.7028 33.3109 13.9204 30.6528 13.9204C27.7629 13.9204 25.0937 14.8451 22.9372 16.4085C22.0386 17.0601 21.229 17.8225 20.5295 18.6753C18.7452 20.8504 17.6777 23.6129 17.6777 26.6194C17.6777 33.6328 23.4868 39.3183 30.6528 39.3183C33.3109 39.3182 35.7825 38.5358 37.84 37.1935Z" fill="#EAF2FF"/>
<path d="M30.653 10.6201C29.6056 10.6201 28.5815 10.7177 27.5889 10.902C35.1523 12.3059 40.8718 18.8084 40.8718 26.6194C40.8718 34.4304 35.1523 40.9329 27.5889 42.3369C28.5816 42.5211 29.6056 42.6187 30.653 42.6187C39.6812 42.6187 47 35.4555 47 26.6194C47 17.7833 39.6812 10.6201 30.653 10.6201Z" fill="#FF5771"/>
<path d="M35.6475 14.896C38.8607 17.8175 40.8719 21.9883 40.8719 26.6194C40.8719 31.2506 38.8607 35.4212 35.6475 38.3429C40.3341 36.4281 43.6281 31.9005 43.6281 26.6194C43.6281 21.3383 40.3341 16.8107 35.6475 14.896Z" fill="#DBE8F9"/>
<path d="M38.7818 25.6969C38.7803 25.2636 38.4194 24.9139 37.9767 24.9168H37.9763C37.9712 24.9168 37.9661 24.9168 37.961 24.9167C37.8074 24.9142 37.6747 24.8115 37.6332 24.6667C37.4547 24.0438 37.1889 23.4401 36.8362 22.8736C36.8762 22.7842 36.9332 22.701 37.0072 22.6296C37.3182 22.3293 37.3075 21.826 36.9975 21.5246L35.7045 20.2681C35.3924 19.9647 34.8823 19.9575 34.5756 20.2661C34.5671 20.2747 34.5583 20.2831 34.5495 20.2911C34.441 20.3907 34.2772 20.4045 34.1475 20.3332C33.6192 20.0426 33.0621 19.8207 32.49 19.6678C32.3416 19.6282 32.2355 19.4989 32.232 19.3484C32.2319 19.3435 32.2318 19.3386 32.2318 19.3337V19.3333C32.229 18.8992 31.8678 18.5493 31.4242 18.5508L29.5967 18.5571C29.1547 18.5586 28.7989 18.9129 28.805 19.3454C28.805 19.3503 28.805 19.3552 28.8049 19.3602C28.8025 19.5106 28.6973 19.6405 28.5493 19.6812C27.9781 19.8381 27.4227 20.0638 26.8963 20.358C26.7673 20.4301 26.6034 20.4175 26.4943 20.3186C26.4853 20.3106 26.4766 20.3023 26.468 20.2938C26.1591 19.9872 25.6491 19.9978 25.3391 20.3034L24.0552 21.5688C23.7474 21.8722 23.7403 22.3757 24.0534 22.6738C24.0569 22.6771 24.0603 22.6805 24.0637 22.6839C24.1748 22.7936 24.1967 22.9622 24.1195 23.0969C23.8238 23.6127 23.598 24.1564 23.4421 24.7149C23.4005 24.8638 23.2615 24.9667 23.1037 24.9676H23.1007H23.1003C22.6568 24.9705 22.2992 25.324 22.3008 25.7581L22.3071 27.5389C22.3087 27.9726 22.6692 28.323 23.1123 28.3215H23.1126C23.1177 28.3215 23.1226 28.3215 23.1277 28.3216C23.2815 28.3239 23.4143 28.4269 23.4558 28.5718C23.6159 29.1302 23.8462 29.6733 24.1463 30.1878C24.2236 30.3203 24.2028 30.4865 24.0944 30.5961C24.0902 30.6004 24.086 30.6046 24.0816 30.6088C23.7706 30.9089 23.7817 31.4125 24.0916 31.7136L25.3845 32.9702C25.6967 33.2736 26.2067 33.2807 26.5134 32.9721C26.522 32.9634 26.5307 32.9551 26.5395 32.947C26.6479 32.8475 26.8117 32.8337 26.9412 32.9049C27.4697 33.1956 28.0267 33.4175 28.5991 33.5704C28.7473 33.61 28.8534 33.7392 28.8569 33.8896C28.857 33.8946 28.8571 33.8995 28.8571 33.9045V33.9048C28.8571 34.338 29.2168 34.6889 29.6594 34.6874L31.4762 34.6812C31.9207 34.6796 32.2809 34.3281 32.2838 33.8931V33.8928C32.2838 33.888 32.2838 33.8832 32.2839 33.8784C32.2862 33.7277 32.3916 33.5976 32.5399 33.5569C33.1108 33.4001 33.666 33.1745 34.1921 32.8804C34.3214 32.8081 34.4856 32.8208 34.5949 32.9199C34.6036 32.9278 34.6121 32.9359 34.6206 32.9442C34.9296 33.2508 35.4396 33.2404 35.7497 32.9348L37.0335 31.6693C37.3413 31.3659 37.3485 30.8624 37.0354 30.5643C36.9608 30.4934 36.9032 30.4105 36.8625 30.3214C37.2112 29.7525 37.4727 29.147 37.6467 28.5229C37.6872 28.3779 37.8192 28.2741 37.9728 28.2706C37.9779 28.2705 37.983 28.2704 37.9881 28.2704H37.9885C38.4316 28.2689 38.7896 27.9161 38.7881 27.4824L38.7818 25.6969ZM30.605 30.2402C28.5617 30.2402 26.9052 28.6189 26.9052 26.6191C26.9052 24.6193 28.5617 22.9981 30.605 22.9981C32.6483 22.9981 34.3048 24.6193 34.3048 26.6191C34.3048 28.619 32.6483 30.2402 30.605 30.2402Z" fill="#FFE07D"/>
<path d="M30.6043 30.9346C28.1732 30.9346 26.1953 28.9988 26.1953 26.6194C26.1953 24.24 28.1732 22.3042 30.6043 22.3042C33.0355 22.3042 35.0133 24.24 35.0133 26.6194C35.0134 28.9988 33.0355 30.9346 30.6043 30.9346ZM30.6043 23.6925C28.9554 23.6925 27.6138 25.0054 27.6138 26.6193C27.6138 28.2332 28.9555 29.5462 30.6043 29.5462C32.2533 29.5462 33.5948 28.2332 33.5948 26.6193C33.5949 25.0054 32.2533 23.6925 30.6043 23.6925Z" fill="#FBB303"/>
</svg>
