<svg width="45" height="46" viewBox="0 0 45 46" fill="none" xmlns="http://www.w3.org/2000/svg">
<path d="M39.8199 36.0069V5.95996H4.03172L3.2168 7.25578V36.0069C3.2168 37.0095 4.01186 37.8222 4.99263 37.8222H38.0441C39.0248 37.8221 39.8199 37.0094 39.8199 36.0069Z" fill="#EAF2FF"/>
<path d="M39.0844 5.96005V36.0069C39.0844 37.0095 38.2894 37.8222 37.3086 37.8222H43.2241C44.2049 37.8222 44.9999 37.0095 44.9999 36.0069V7.25578L44.185 5.95996H39.0844V5.96005Z" fill="#DBE8F9"/>
<path d="M39.8199 1.81822C39.8199 0.815656 39.0248 0.00292969 38.0441 0.00292969H4.99263C4.01186 0.00292969 3.2168 0.815656 3.2168 1.81822V7.25575H39.8199V1.81822Z" fill="#4A65CE"/>
<path d="M43.2241 0.00292969H37.3086C38.2894 0.00292969 39.0844 0.815656 39.0844 1.81822V7.25575H44.9999V1.81822C44.9999 0.815656 44.2049 0.00292969 43.2241 0.00292969Z" fill="#2E51DB"/>
<path d="M34.351 21.3992C34.349 20.8359 33.9008 20.3809 33.3498 20.3828H33.3494C32.9218 20.3844 32.5406 20.1074 32.4025 19.6937C32.2772 19.3184 32.1268 18.9498 31.9514 18.5909C31.7607 18.2006 31.8364 17.7292 32.1372 17.4197C32.5255 17.02 32.5232 16.3743 32.1323 15.9774L30.5246 14.3453C30.1335 13.9484 29.5019 13.9507 29.1136 14.3504C28.8128 14.66 28.3523 14.7407 27.9691 14.5485C27.6168 14.3717 27.2552 14.2205 26.8871 14.0951C26.4815 13.9569 26.2079 13.5691 26.2064 13.132V13.1316C26.2045 12.5683 25.7562 12.1133 25.2053 12.1152L22.9395 12.1233C22.3885 12.1253 21.9434 12.5835 21.9453 13.1467V13.1472C21.9468 13.5843 21.6758 13.9739 21.2712 14.1152C20.904 14.2433 20.5434 14.397 20.1923 14.5762C19.8105 14.7712 19.3494 14.6938 19.0466 14.3863C18.6556 13.9894 18.0239 13.9916 17.6356 14.3913L16.039 16.0348C15.6507 16.4345 15.6529 17.0802 16.044 17.4771C16.3468 17.7846 16.4258 18.2553 16.2378 18.647C16.0648 19.0072 15.917 19.3768 15.7943 19.753C15.659 20.1677 15.2797 20.4473 14.8521 20.4489H14.8516C14.3007 20.4509 13.8555 20.9091 13.8574 21.4724L13.8653 23.7885C13.8673 24.3517 14.3155 24.8067 14.8666 24.8048H14.867C15.2946 24.8032 15.6758 25.0802 15.814 25.4939C15.9393 25.8692 16.0897 26.2378 16.265 26.5967C16.4557 26.987 16.38 27.4584 16.0792 27.7679C15.6909 28.1676 15.6931 28.8133 16.0841 29.2103L17.6918 30.8423C18.0829 31.2392 18.7145 31.237 19.1028 30.8372C19.4036 30.5276 19.8641 30.447 20.2473 30.6391C20.5996 30.8159 20.9612 30.9671 21.3293 31.0925C21.7349 31.2308 22.0085 31.6185 22.01 32.0556V32.0561C22.0119 32.6193 22.4602 33.0744 23.0112 33.0724L25.2769 33.0643C25.8279 33.0623 26.273 32.6041 26.2711 32.0409V32.0404C26.2696 31.6033 26.5406 31.2137 26.9452 31.0725C27.3124 30.9443 27.673 30.7907 28.0241 30.6114C28.4059 30.4164 28.867 30.4939 29.1698 30.8013C29.5608 31.1982 30.1925 31.1959 30.5808 30.7963L32.1774 29.1528C32.5657 28.7531 32.5635 28.1074 32.1724 27.7105C31.8696 27.4031 31.7906 26.9323 31.9786 26.5406C32.1516 26.1805 32.2994 25.8108 32.4221 25.4346C32.5574 25.0199 32.9367 24.7403 33.3643 24.7387H33.3648C33.9157 24.7368 34.3609 24.2786 34.359 23.7152L34.351 21.3992ZM27.3563 25.891C25.5749 27.7248 22.6765 27.7351 20.8826 25.9142C19.0887 24.0932 19.0786 21.1304 20.8599 19.2966C22.6413 17.4628 25.5397 17.4525 27.3336 19.2735C29.1275 21.0944 29.1377 24.0572 27.3563 25.891Z" fill="#FBB303"/>
<path d="M4.90789 41.8095C5.07699 41.7018 5.02435 41.7155 6.5249 40.1938C7.01639 39.6407 7.68119 39.2802 8.40479 39.1742C8.43459 39.1647 10.4445 38.9715 12.0544 37.3258L17.4518 31.9316C17.5809 31.8025 17.5822 31.5904 17.4545 31.4599C17.5003 31.413 17.5049 31.4075 17.4745 31.4372C18.0895 30.7848 18.0671 29.737 17.4055 29.1147C16.7743 28.521 15.7873 28.5697 15.1808 29.1896L14.0975 30.297C14.7316 29.6488 14.7177 28.5889 14.0558 27.9587C13.4253 27.3583 12.4326 27.4045 11.8233 28.0273L11.2009 28.6636C11.835 28.0154 11.8211 26.9555 11.1591 26.3252C10.5286 25.725 9.53586 25.7711 8.9266 26.3939L5.28424 30.1172C4.67384 30.7411 4.19395 31.4853 3.87359 32.3047L2.56912 35.5937C2.31248 36.2407 1.93139 36.8286 1.44834 37.3224L0.983398 37.7976L4.90789 41.8095Z" fill="#FFDDCE"/>
<path d="M24.5692 28.7812C25.1586 28.1787 25.1882 27.2207 24.6581 26.5824C24.0449 25.8443 22.9569 25.8349 22.287 26.5196L17.4543 31.4597C18.044 30.8569 11.8223 37.0884 11.8223 37.0884C10.8483 38.0841 9.58482 38.7301 8.22129 38.9298L8.17268 38.9369C7.44908 39.0428 6.78428 39.4033 6.29279 39.9564L4.85341 41.4278C4.79856 41.4838 4.73889 41.532 4.67578 41.5722L7.91367 44.882C7.91613 44.8821 7.91754 44.8821 7.92009 44.8822C8.84417 44.0583 9.98323 43.5214 11.2032 43.3428L12.3696 43.172C13.7341 42.9722 14.9985 42.3257 15.9732 41.3293L19.2457 37.9842C19.8477 37.3687 19.9071 36.3673 19.3384 35.7196C19.0602 35.4027 18.6919 35.226 18.3126 35.1874C18.3113 35.1836 18.3111 35.1833 18.3098 35.1795L24.5692 28.7812Z" fill="#FFCBBE"/>
<path d="M4.90834 41.8097C5.07744 41.702 5.0248 41.7157 6.52535 40.194L2.43325 36.0109C2.04513 35.6142 1.41583 35.6142 1.02771 36.0109L0.291094 36.7639C-0.0970313 37.1607 -0.0970313 37.804 0.291094 38.2007L3.68042 41.6653C4.0137 42.006 4.52479 42.0542 4.90834 41.8097Z" fill="#FF758A"/>
<path d="M9.76951 43.5101L6.29317 39.9565L4.85379 41.4279C4.46566 41.8247 3.83637 41.8247 3.44824 41.4279L7.62735 45.6999C8.01548 46.0966 8.64477 46.0966 9.0329 45.6999L9.76951 44.9469C10.1576 44.5502 10.1576 43.9069 9.76951 43.5101Z" fill="#FF5771"/>
<path d="M28.4635 4.47811H7.99936C7.62433 4.47811 7.32031 4.16734 7.32031 3.78398C7.32031 3.40061 7.62433 3.08984 7.99936 3.08984H28.4635C28.8386 3.08984 29.1425 3.40061 29.1425 3.78398C29.1425 4.16734 28.8386 4.47811 28.4635 4.47811Z" fill="#F2F9FF"/>
<path d="M34.3547 4.32614C34.7313 4.32614 35.0366 4.01408 35.0366 3.62914C35.0366 3.24419 34.7313 2.93213 34.3547 2.93213C33.9781 2.93213 33.6729 3.24419 33.6729 3.62914C33.6729 4.01408 33.9781 4.32614 34.3547 4.32614Z" fill="#F2F9FF"/>
<path d="M37.3225 4.32614C37.6991 4.32614 38.0043 4.01408 38.0043 3.62914C38.0043 3.24419 37.6991 2.93213 37.3225 2.93213C36.9459 2.93213 36.6406 3.24419 36.6406 3.62914C36.6406 4.01408 36.9459 4.32614 37.3225 4.32614Z" fill="#F2F9FF"/>
<path d="M40.2912 4.32614C40.6678 4.32614 40.9731 4.01408 40.9731 3.62914C40.9731 3.24419 40.6678 2.93213 40.2912 2.93213C39.9147 2.93213 39.6094 3.24419 39.6094 3.62914C39.6094 4.01408 39.9147 4.32614 40.2912 4.32614Z" fill="#F2F9FF"/>
</svg>
