<svg width="47" height="47" viewBox="0 0 47 47" fill="none" xmlns="http://www.w3.org/2000/svg">
<g clip-path="url(#clip0_1_3325)">
<path d="M36.1469 15.5039H5.18944C4.10862 15.5039 3.23242 16.3801 3.23242 17.4609V41.6765H38.1039V17.4609C38.1039 16.3801 37.2277 15.5039 36.1469 15.5039Z" fill="#4A65CE"/>
<path d="M41.8106 15.5039H35.6123C36.6931 15.5039 37.5693 16.3801 37.5693 17.4609V41.6765H43.7676V17.4609C43.7676 16.3801 42.8914 15.5039 41.8106 15.5039Z" fill="#4767E7"/>
<path d="M38.1034 19.2866H8.31376C7.59627 19.2866 7.01465 19.8682 7.01465 20.5857V40.4789H38.1035V19.2866H38.1034Z" fill="#EAF2FF"/>
<path d="M39.9849 40.4789V20.5857C39.9849 19.8682 39.4033 19.2866 38.6858 19.2866H37.5693V40.4789H39.9849Z" fill="#DBE8F9"/>
<path d="M37.1716 45.8706C39.5008 45.8706 41.389 43.9824 41.389 41.6532V40.479H1.17417C0.525721 40.479 0 41.0046 0 41.6532C0 43.9824 1.88817 45.8706 4.21742 45.8706H37.1716Z" fill="#4A65CE"/>
<path d="M45.8252 40.479H40.8209V41.6532C40.8209 43.9824 38.9328 45.8706 36.6035 45.8706H42.7819C45.1112 45.8706 46.9993 43.9824 46.9993 41.6532C46.9993 41.0046 46.4736 40.479 45.8252 40.479Z" fill="#2E51DB"/>
<path d="M16.3389 40.479C16.3389 41.9679 17.5458 43.1748 19.0347 43.1748H27.9654C29.4543 43.1748 30.6612 41.9679 30.6612 40.479H16.3389Z" fill="#60A0F7"/>
<path d="M28.5454 7.73766C28.5454 4.45583 25.9049 1.67429 22.7596 1.15674C17.6027 1.53595 13.5368 5.83985 13.5368 11.0935C13.5368 11.0935 13.5359 13.9199 13.5342 19.0932C13.5335 21.0241 14.766 22.7397 16.5962 23.3554L20.1363 24.5465H26.8652L27.2107 24.4303C28.0083 24.1619 28.5454 23.4144 28.5454 22.573V7.73766H28.5454Z" fill="#756E78"/>
<path d="M28.0953 7.73758V15.3907C28.0698 17.0772 27.4571 18.621 26.453 19.8275V23.6292C26.453 23.9579 26.5341 24.2698 26.6766 24.5465H26.8652L30.4053 23.3554C32.2354 22.7398 33.4678 21.0241 33.4673 19.0932C33.4655 13.9198 33.4647 11.0934 33.4647 11.0934C33.4647 5.59045 29.0037 1.12939 23.5007 1.12939C23.1237 1.12939 22.7518 1.15106 22.3857 1.19182C25.61 1.63051 28.0953 4.39305 28.0953 7.73758Z" fill="#665E66"/>
<path d="M31.2998 26.2L28.9837 25.6058C28.9599 25.6012 28.9371 25.5945 28.9137 25.5891C28.0034 25.3798 27.3514 24.5698 27.3514 23.6294V18.1016H19.65V23.6294C19.65 24.5698 18.9979 25.3798 18.0876 25.5891C18.0642 25.5945 18.0414 25.6012 18.0176 25.6058L15.7015 26.2C13.1806 26.6851 18.3406 31.3492 23.5006 31.3492C28.6606 31.3492 33.8208 26.6851 31.2998 26.2Z" fill="#FFDDCE"/>
<path d="M18.7476 40.4786H28.2548C28.8303 36.6837 28.9242 32.8312 28.5334 29.0127C27.0412 29.8361 25.326 30.3048 23.5012 30.3048C21.6763 30.3048 19.961 29.8361 18.469 29.0127C18.0782 32.8312 18.172 36.6837 18.7476 40.4786Z" fill="#FFE07D"/>
<path d="M27.8909 40.4786H39.9854V36.7165C39.9854 31.582 36.3415 27.17 31.2996 26.1996L28.9834 25.6054C28.9597 25.6008 28.9369 25.5941 28.9135 25.5887C28.2383 25.4334 27.706 24.9475 27.4756 24.3232L27.7801 26.0216C28.638 30.806 28.6729 35.6948 27.8909 40.4786Z" fill="#FF758A"/>
<path d="M31.2996 26.1996L28.9834 25.6054C28.9597 25.6008 28.9369 25.5941 28.9135 25.5887C28.2383 25.4334 27.706 24.9475 27.4756 24.3232L27.7801 26.0216C27.9744 27.1054 28.1243 28.1949 28.2342 29.287C31.5959 31.1242 33.8083 34.6855 33.8083 38.6859V40.4786H39.9854V36.7165C39.9854 31.5819 36.3415 27.1699 31.2996 26.1996Z" fill="#FF5771"/>
<path d="M19.1102 40.4786C18.3282 35.6948 18.3631 30.806 19.2209 26.0216L19.5254 24.3232C19.295 24.9475 18.7627 25.4334 18.0875 25.5887C18.0641 25.5941 18.0413 25.6008 18.0176 25.6054L15.7014 26.1996C10.6595 27.1699 7.01562 31.582 7.01562 36.7165V40.4786H19.1102Z" fill="#FF758A"/>
<path d="M28.4586 16.4001C28.4587 16.3996 28.4588 16.399 28.4589 16.3986C28.5115 16.0637 28.5404 15.7251 28.5454 15.3908V9.26668C27.8419 8.43371 27.4616 7.55953 27.2574 6.92384C27.1562 6.60888 26.7292 6.56877 26.5684 6.85793C25.0244 9.6368 21.9504 10.8898 18.4103 10.8898C18.3434 10.8898 17.4826 10.8898 16.3936 10.8898V15.3908C16.4488 19.0462 19.2608 22.0331 22.8434 22.3615C25.5967 21.67 28.008 19.25 28.4586 16.4001Z" fill="#FFDDCE"/>
<path d="M28.095 8.66699V15.3907C28.0429 18.8394 25.5361 21.691 22.2441 22.2784C22.6521 22.3512 23.0714 22.3914 23.5004 22.3914C27.3905 22.3914 30.5489 19.2668 30.6075 15.3907V10.8897C29.4219 10.2879 28.6274 9.46581 28.095 8.66699Z" fill="#FFCBBE"/>
<path d="M30.6074 10.8896V16.5345H32.8045C33.5882 16.5345 34.2235 15.8992 34.2235 15.1155V12.3087C34.2235 11.5251 33.5882 10.8897 32.8045 10.8897H30.6074V10.8896Z" fill="#5391A0"/>
<path d="M16.3934 10.8896V16.5345H14.1963C13.4127 16.5345 12.7773 15.8992 12.7773 15.1155V12.3087C12.7773 11.5251 13.4127 10.8897 14.1963 10.8897H16.3934V10.8896Z" fill="#5391A0"/>
<path d="M34.2238 15.1152C34.2238 15.8982 33.5898 16.533 32.8071 16.5342V17.7244C32.8071 18.6422 32.0605 19.3888 31.1428 19.3888H27.2053C26.8135 19.3888 26.4961 19.7064 26.4961 20.0981C26.4961 20.4898 26.8136 20.8073 27.2053 20.8073H31.1428C32.8427 20.8073 34.2256 19.4243 34.2256 17.7243L34.2238 15.1152Z" fill="#B9CED3"/>
<path d="M27.0533 21.2387H25.24C24.5481 21.2387 23.9873 20.6778 23.9873 19.9861C23.9873 19.2942 24.5482 18.7334 25.24 18.7334H27.0533C27.7452 18.7334 28.306 19.2943 28.306 19.9861C28.306 20.6778 27.7451 21.2387 27.0533 21.2387Z" fill="#FF758A"/>
<path d="M32.078 34.9825H35.1636C35.5962 34.9825 35.9467 34.6318 35.9467 34.1994V32.8857C35.9467 32.4531 35.5961 32.1025 35.1636 32.1025H32.078C31.6455 32.1025 31.2949 32.4532 31.2949 32.8857V34.1994C31.2949 34.6318 31.6456 34.9825 32.078 34.9825Z" fill="#EAF2FF"/>
<path d="M16.3935 15.3906V10.8896H14.1964C13.4128 10.8896 12.7773 11.525 12.7773 12.3087V15.1155C12.7773 15.8992 13.4127 16.5345 14.1964 16.5345H16.5043C16.438 16.1623 16.3994 15.7805 16.3935 15.3906Z" fill="#4A65CE"/>
<path d="M32.804 10.8896H30.6069V15.3906C30.601 15.7805 30.5623 16.1623 30.4961 16.5345H32.804C33.5876 16.5345 34.223 15.8992 34.223 15.1155V12.3087C34.2231 11.5251 33.5877 10.8896 32.804 10.8896Z" fill="#4A65CE"/>
</g>
<defs>
<clipPath id="clip0_1_3325">
<rect width="47" height="47" fill="white"/>
</clipPath>
</defs>
</svg>
